<?xml version="1.0" standalone="no"?>
<!DOCTYPE svg PUBLIC "-//W3C//DTD SVG 20010904//EN"
 "http://www.w3.org/TR/2001/REC-SVG-20010904/DTD/svg10.dtd">
<svg version="1.0" xmlns="http://www.w3.org/2000/svg"
 width="597.000000pt" height="81.000000pt" viewBox="0 0 597.000000 81.000000"
 preserveAspectRatio="xMidYMid meet">

<g transform="translate(0.000000,81.000000) scale(0.100000,-0.100000)"
fill="#000000" stroke="none">
<path d="M4205 797 c-113 -29 -225 -100 -246 -156 -15 -38 5 -73 58 -101 74
-40 85 -70 80 -220 -3 -113 -6 -130 -32 -182 -25 -50 -27 -59 -16 -86 17 -41
48 -52 146 -52 72 0 88 3 105 20 27 27 25 55 -10 120 -55 103 -33 147 93 189
142 47 214 161 186 291 -14 64 -68 128 -134 159 -56 26 -164 35 -230 18z
m-139 -112 c-21 -16 -32 -13 -21 4 3 6 14 11 23 11 15 -1 15 -2 -2 -15z m334
-60 c45 -41 12 -137 -60 -177 -28 -16 -40 -18 -61 -10 -25 10 -26 14 -28 89
-2 68 1 81 20 102 18 20 29 22 66 18 24 -2 53 -13 63 -22z"/>
<path d="M1392 775 c-67 -57 -73 -106 -31 -279 14 -59 19 -117 19 -216 0 -121
2 -141 23 -180 37 -73 61 -84 187 -88 136 -5 200 12 252 64 56 55 63 102 42
265 -18 143 -15 231 10 291 23 54 20 83 -12 119 -24 27 -37 33 -85 37 -52 4
-58 2 -87 -26 -38 -38 -39 -74 -5 -179 32 -98 40 -170 26 -253 -8 -52 -16 -70
-41 -92 -36 -33 -77 -36 -113 -8 -37 30 -51 82 -50 190 1 76 6 109 27 164 36
94 35 149 -3 187 -40 40 -115 42 -159 4z m68 -15 c0 -12 -40 -34 -47 -26 -9 8
17 36 33 36 8 0 14 -4 14 -10z"/>
<path d="M2185 775 c-87 -31 -166 -85 -191 -130 -17 -32 -18 -38 -4 -63 9 -15
33 -37 55 -49 58 -32 68 -61 66 -178 -2 -112 -11 -155 -46 -222 -31 -58 -31
-78 0 -108 22 -23 32 -25 119 -25 71 0 98 4 110 15 28 28 28 53 1 113 -43 96
-23 159 42 137 18 -7 36 -26 51 -55 20 -39 22 -54 17 -111 -6 -62 -5 -68 16
-83 36 -25 158 -22 193 5 41 32 35 70 -24 150 -60 83 -90 140 -90 173 0 13 17
45 39 71 114 138 67 317 -98 373 -59 21 -178 14 -256 -13z m-88 -92 c-9 -9
-19 -14 -23 -11 -10 10 6 28 24 28 15 0 15 -1 -1 -17z m312 -48 c32 -16 41
-33 41 -76 0 -40 -69 -115 -118 -129 -20 -5 -36 -8 -37 -7 -19 41 -25 68 -25
113 0 48 4 60 29 85 33 32 67 37 110 14z"/>
<path d="M2935 787 c-60 -28 -68 -47 -82 -190 -17 -182 -35 -255 -93 -376 -54
-112 -61 -155 -31 -188 35 -38 183 -42 212 -7 7 8 12 34 11 56 -2 53 27 88 73
88 43 0 55 -16 55 -73 0 -71 10 -83 74 -91 105 -14 176 28 176 102 0 22 -21
80 -56 154 -57 122 -77 197 -89 328 -7 85 -36 154 -77 184 -35 25 -131 32
-173 13z m15 -35 c0 -10 -22 -32 -32 -32 -13 0 -9 28 5 33 19 8 27 8 27 -1z
m106 -254 c9 -17 19 -58 21 -90 7 -70 -11 -98 -61 -98 -27 0 -77 19 -51 20 6
0 10 24 10 53 1 62 30 147 51 147 7 0 21 -14 30 -32z"/>
<path d="M5573 781 c-52 -24 -73 -63 -73 -137 0 -87 -29 -260 -54 -328 -13
-34 -38 -88 -55 -121 -45 -86 -49 -124 -18 -160 23 -28 29 -29 105 -30 101 0
122 15 122 85 0 57 21 80 73 80 44 0 61 -24 51 -75 -10 -53 14 -81 74 -90 28
-4 67 -2 91 5 100 27 107 90 31 249 -59 121 -75 181 -89 314 -15 154 -61 217
-163 224 -38 3 -65 -2 -95 -16z m17 -35 c0 -14 -29 -31 -38 -21 -6 6 18 35 29
35 5 0 9 -6 9 -14z m104 -238 c18 -28 35 -119 29 -153 -7 -35 -26 -47 -69 -43
l-38 3 2 60 c4 85 28 155 53 155 5 0 15 -10 23 -22z"/>
<path d="M3490 772 c-51 -25 -66 -63 -52 -132 17 -84 4 -389 -20 -459 -24 -72
-23 -85 11 -123 l29 -33 180 0 c176 0 181 1 206 24 58 55 56 155 -4 186 -40
21 -61 19 -103 -9 -66 -45 -75 -48 -110 -37 -30 10 -32 14 -35 67 -5 99 17
281 45 366 31 94 26 121 -27 149 -43 24 -75 24 -120 1z m40 -22 c0 -12 -28
-25 -36 -17 -9 9 6 27 22 27 8 0 14 -5 14 -10z"/>
<path d="M4753 776 c-17 -8 -36 -23 -42 -35 -14 -25 -14 -85 -1 -131 6 -22 7
-85 1 -180 -8 -118 -15 -163 -41 -242 -35 -112 -33 -141 14 -165 39 -21 150
-22 191 -2 45 21 54 67 27 132 -12 29 -22 60 -22 69 0 9 -5 18 -12 20 -22 8
37 56 76 63 105 20 153 -49 106 -154 -29 -62 -26 -105 8 -131 23 -19 37 -21
94 -18 58 3 72 8 97 32 46 44 48 85 11 213 -30 104 -31 115 -31 291 l1 184
-29 29 c-23 22 -39 29 -68 29 -79 0 -96 -40 -74 -172 l14 -89 -25 -26 c-19
-19 -39 -26 -85 -30 -58 -5 -62 -4 -79 22 -16 24 -16 34 -6 96 7 38 12 87 12
109 0 72 -69 115 -137 86z m37 -25 c0 -14 -18 -23 -31 -15 -8 4 -7 9 2 15 18
11 29 11 29 0z"/>
<path d="M60 762 c-58 -29 -76 -92 -44 -154 9 -17 41 -58 72 -92 108 -115 132
-151 144 -208 10 -47 9 -63 -10 -125 -43 -141 -28 -165 108 -171 88 -4 89 -4
120 26 38 38 39 75 4 144 -22 43 -25 62 -22 114 5 74 32 120 151 251 81 90
101 134 82 179 -21 51 -99 69 -170 40 -28 -12 -36 -22 -45 -58 -22 -90 -83
-178 -122 -178 -10 0 -16 -4 -13 -10 3 -6 -1 -7 -10 -4 -23 9 -51 71 -59 129
-10 74 -24 102 -61 119 -43 21 -82 20 -125 -2z m30 -32 c0 -5 -8 -10 -17 -10
-15 0 -16 2 -3 10 19 12 20 12 20 0z"/>
<path d="M935 737 c-111 -63 -184 -248 -187 -477 -3 -148 36 -212 149 -246 63
-19 188 -18 247 2 94 32 135 132 117 285 -13 101 -61 272 -101 354 -48 99
-137 132 -225 82z m35 -26 c0 -10 -30 -24 -37 -17 -3 3 -2 9 2 15 8 13 35 15
35 2z m54 -170 c51 -57 84 -247 52 -308 -18 -35 -69 -58 -108 -48 -51 13 -73
146 -44 267 23 99 61 133 100 89z"/>
</g>
</svg>
