<?xml version="1.0" standalone="no"?>
<!DOCTYPE svg PUBLIC "-//W3C//DTD SVG 20010904//EN"
 "http://www.w3.org/TR/2001/REC-SVG-20010904/DTD/svg10.dtd">
<svg version="1.0" xmlns="http://www.w3.org/2000/svg"
 width="438.000000pt" height="81.000000pt" viewBox="0 0 438.000000 81.000000"
 preserveAspectRatio="xMidYMid meet">

<g transform="translate(0.000000,81.000000) scale(0.100000,-0.100000)"
fill="#000000" stroke="none">
<path d="M3640 782 c-36 -37 -38 -70 -10 -160 24 -76 26 -171 5 -212 -18 -35
-37 -38 -64 -11 -27 27 -35 77 -22 146 6 32 11 87 11 121 0 96 -29 120 -137
115 -13 -1 -37 -13 -53 -28 -46 -41 -49 -87 -11 -204 38 -117 38 -157 5 -294
-21 -87 -23 -112 -14 -139 16 -50 61 -87 112 -93 69 -7 81 8 87 115 6 94 16
116 47 110 17 -3 19 -14 19 -83 1 -104 0 -102 35 -120 62 -32 141 -9 166 50
20 48 17 130 -7 238 -29 133 -27 200 10 282 40 87 40 123 1 160 -24 23 -41 30
-90 33 -55 4 -61 2 -90 -26z"/>
<path d="M1293 775 c-65 -28 -78 -111 -43 -265 24 -104 25 -148 4 -200 -20
-49 -44 -65 -70 -46 -26 20 -31 147 -10 239 9 38 16 98 16 133 0 59 -3 68 -29
95 -20 19 -41 29 -63 30 -120 6 -143 -12 -140 -105 2 -36 14 -102 27 -147 28
-94 31 -172 10 -269 -20 -89 -18 -129 5 -167 25 -41 76 -56 195 -57 110 -1
163 14 211 59 l37 35 -9 142 c-10 184 -8 236 16 331 22 84 28 147 15 166 -11
19 -70 41 -107 41 -18 -1 -47 -7 -65 -15z"/>
<path d="M616 765 c-58 -21 -88 -46 -113 -95 -29 -55 -29 -104 -2 -217 16 -67
19 -102 14 -148 -15 -121 -12 -181 11 -212 34 -47 86 -66 178 -66 171 0 260
86 221 215 -12 42 -14 80 -9 183 6 107 4 141 -10 188 -23 81 -83 140 -155 156
-66 14 -87 13 -135 -4z m128 -279 c23 -48 34 -202 17 -235 -19 -34 -61 -25
-84 19 -15 29 -17 49 -12 115 7 88 28 149 47 143 7 -2 21 -21 32 -42z"/>
<path d="M1544 766 c-62 -27 -69 -116 -19 -223 42 -90 44 -165 6 -287 -37
-119 -39 -156 -8 -191 27 -32 93 -47 144 -33 47 13 58 45 38 113 -20 69 -19
87 2 83 12 -2 23 -23 35 -67 29 -106 58 -130 128 -107 43 14 67 49 75 108 8
57 -12 82 -73 93 -70 12 -72 27 -8 95 72 79 94 145 78 234 -22 115 -81 166
-217 185 -94 14 -144 13 -181 -3z m195 -243 c15 -54 13 -126 -3 -149 -14 -17
-16 -18 -31 -3 -9 9 -19 40 -22 72 -10 97 34 159 56 80z"/>
<path d="M2117 767 c-46 -15 -85 -50 -94 -85 -3 -14 2 -65 12 -114 23 -113 17
-162 -34 -275 -30 -66 -41 -104 -41 -139 0 -121 107 -175 185 -94 23 24 27 37
27 79 -2 46 1 51 22 57 14 3 34 3 46 -1 20 -6 22 -12 17 -47 -8 -60 5 -85 53
-99 53 -16 109 0 145 43 24 29 27 38 21 83 -3 28 -23 103 -45 166 -54 156 -59
200 -31 284 27 81 19 108 -38 132 -48 20 -195 27 -245 10z m137 -288 c9 -23
19 -62 23 -87 7 -50 -10 -72 -53 -72 -39 0 -48 23 -35 91 13 66 30 109 42 109
4 0 14 -18 23 -41z"/>
<path d="M2533 770 c-50 -21 -55 -85 -17 -205 39 -120 41 -172 10 -298 -31
-130 -32 -166 -6 -200 29 -37 80 -50 174 -45 99 5 135 21 160 71 l18 39 18
-39 c22 -49 70 -77 131 -77 93 0 127 56 94 154 -9 28 -15 57 -12 64 3 7 27 19
54 25 83 21 139 91 163 205 20 100 -4 199 -62 253 -55 52 -162 72 -286 55
-121 -17 -136 -51 -82 -186 49 -125 50 -158 1 -339 -17 -66 -18 -67 -36 -47
-23 25 -34 25 -91 -2 l-46 -23 -18 23 c-11 13 -21 48 -25 88 -7 59 -4 77 30
182 31 96 36 126 32 170 -6 58 -24 93 -60 116 -28 19 -115 29 -144 16z m608
-274 c10 -54 -4 -96 -32 -96 -26 0 -39 30 -39 89 0 60 23 92 48 68 8 -8 18
-36 23 -61z"/>
<path d="M4025 769 c-50 -12 -93 -53 -101 -96 -4 -19 1 -63 11 -103 24 -100
17 -166 -30 -269 -21 -47 -40 -104 -43 -127 -6 -54 13 -108 45 -134 71 -55
185 18 168 108 -7 39 4 52 45 52 36 0 49 -17 43 -56 -9 -57 3 -82 46 -95 74
-22 151 14 167 77 9 37 -11 131 -47 222 -16 41 -34 104 -40 140 -10 60 -9 74
10 127 12 32 21 69 21 81 0 64 -163 104 -295 73z m131 -296 c10 -25 18 -67 18
-92 1 -41 -2 -46 -27 -55 -44 -16 -63 2 -59 55 3 51 30 139 42 139 5 0 16 -21
26 -47z"/>
<path d="M290 738 c-11 -18 -20 -37 -20 -43 -1 -43 -21 -139 -31 -152 -12 -13
-14 -13 -26 3 -7 10 -13 38 -13 63 0 57 -16 115 -36 136 -37 36 -117 7 -149
-55 -31 -60 -14 -121 55 -196 81 -88 98 -175 60 -308 -34 -122 -17 -165 71
-181 27 -5 50 -1 82 13 73 32 90 88 67 213 -16 85 -15 180 3 214 8 17 38 58
66 93 48 60 56 79 51 127 -5 51 -70 105 -128 105 -26 0 -36 -6 -52 -32z"/>
</g>
</svg>
