<?xml version="1.0" standalone="no"?>
<!DOCTYPE svg PUBLIC "-//W3C//DTD SVG 20010904//EN"
 "http://www.w3.org/TR/2001/REC-SVG-20010904/DTD/svg10.dtd">
<svg version="1.0" xmlns="http://www.w3.org/2000/svg"
 width="333.000000pt" height="81.000000pt" viewBox="0 0 333.000000 81.000000"
 preserveAspectRatio="xMidYMid meet">

<g transform="translate(0.000000,81.000000) scale(0.100000,-0.100000)"
fill="#000000" stroke="none">
<path d="M472 731 l-72 -80 0 -246 0 -246 72 -80 73 -79 77 77 78 78 0 250 0
250 -78 78 -77 77 -73 -79z m100 -88 c16 -15 18 -36 18 -238 0 -210 -1 -223
-20 -240 -20 -18 -21 -18 -45 5 l-25 23 0 211 c0 202 1 211 22 233 26 27 26
28 50 6z"/>
<path d="M1592 737 l-72 -72 0 -138 c0 -115 -2 -137 -15 -137 -11 0 -15 -12
-15 -50 0 -38 4 -50 15 -50 12 0 15 -19 15 -113 0 -75 -4 -117 -12 -125 -9 -9
5 -12 66 -12 70 0 76 1 62 16 -13 12 -16 39 -16 125 l0 109 45 0 45 0 0 -125
0 -125 68 0 c50 1 63 3 50 11 -17 9 -18 35 -18 312 l0 303 -73 72 -72 72 -73
-73z m118 -229 l0 -118 -45 0 -45 0 0 117 c0 106 2 119 22 140 l22 23 23 -22
c22 -20 23 -29 23 -140z"/>
<path d="M3082 737 l-72 -72 0 -138 c0 -115 -2 -137 -15 -137 -11 0 -15 -12
-15 -50 0 -38 4 -50 15 -50 12 0 15 -19 15 -115 0 -98 -2 -115 -17 -124 -13
-8 4 -10 67 -10 63 0 80 2 68 10 -16 9 -18 26 -18 124 l0 115 45 0 45 0 0
-125 0 -125 62 0 c48 0 59 3 50 12 -9 9 -12 92 -12 313 l0 301 -73 72 -72 72
-73 -73z m100 -94 c15 -14 18 -32 18 -135 l0 -118 -45 0 -45 0 0 117 c0 94 3
120 17 135 20 22 31 23 55 1z"/>
<path d="M28 758 c8 -8 12 -57 12 -153 l0 -140 95 -95 c93 -92 95 -96 95 -141
0 -33 -5 -51 -20 -64 -20 -18 -21 -18 -45 5 -20 19 -25 33 -25 72 l0 48 -50 0
-50 0 0 -68 0 -68 75 -74 75 -74 75 74 c53 53 75 82 75 99 0 14 12 38 27 53
l27 28 -27 28 -27 28 0 221 c0 168 3 223 13 226 6 3 -24 6 -67 6 -62 1 -77 -2
-68 -11 8 -8 12 -61 12 -172 l0 -160 -45 44 -45 44 0 118 c0 101 2 118 18 127
12 8 -4 10 -62 11 -62 0 -77 -3 -68 -12z"/>
<path d="M753 759 c16 -9 17 -36 17 -330 0 -210 4 -327 11 -341 34 -64 234
-64 268 0 7 14 11 130 11 339 0 235 3 322 12 331 9 9 -6 12 -67 12 -59 -1 -75
-3 -62 -11 16 -9 17 -35 17 -309 l0 -300 -45 0 -45 0 0 298 c0 218 3 301 12
310 9 9 -6 12 -68 12 -58 -1 -74 -3 -61 -11z"/>
<path d="M1128 763 c9 -3 12 -51 12 -189 0 -157 -2 -184 -15 -184 -21 0 -21
-88 0 -96 12 -5 15 -28 15 -120 0 -97 -2 -114 -17 -123 -13 -8 4 -10 67 -11
65 0 81 3 72 12 -8 8 -12 50 -12 125 l0 113 40 0 39 0 3 -122 3 -123 64 -3
c52 -2 62 -1 54 10 -6 7 -13 73 -15 150 -3 122 -5 140 -25 166 l-22 30 25 23
c24 22 24 26 24 186 l0 163 -162 -1 c-90 0 -157 -3 -150 -6z m202 -186 l0 -93
-40 -39 -40 -39 0 132 0 132 40 0 40 0 0 -93z"/>
<path d="M1878 763 c9 -4 12 -84 12 -353 0 -322 -1 -350 -17 -359 -13 -7 35
-10 162 -11 139 0 176 3 167 12 -8 8 -12 50 -12 125 l0 113 -55 0 -55 0 0 -75
0 -75 -40 0 -40 0 0 309 c0 238 3 310 13 314 6 3 -24 5 -68 5 -44 0 -74 -2
-67 -5z"/>
<path d="M2088 726 c-16 -24 -28 -46 -28 -50 0 -3 47 -6 105 -6 l105 0 0 -178
0 -178 -30 -29 -30 -29 30 -31 c27 -28 30 -37 30 -97 0 -53 -4 -69 -17 -77
-13 -8 4 -10 65 -11 76 0 82 1 68 16 -13 12 -16 38 -16 117 l0 102 100 100
100 100 0 141 c0 105 3 144 13 147 6 3 -96 6 -228 6 l-240 1 -27 -44z m372
-139 l0 -83 -45 -44 -45 -44 0 127 0 127 45 0 45 0 0 -83z"/>
<path d="M2613 759 c15 -9 17 -29 17 -189 l0 -180 -26 0 c-24 0 -25 -2 -22
-47 3 -41 6 -48 26 -51 21 -3 22 -7 22 -117 0 -98 -2 -115 -17 -124 -13 -8 4
-10 67 -10 63 0 80 2 68 10 -16 9 -18 26 -18 124 l0 115 45 0 45 0 0 -115 c0
-98 -2 -115 -17 -124 -13 -8 4 -10 67 -10 63 0 80 2 68 10 -17 9 -18 37 -18
354 0 317 1 345 18 354 12 8 -5 10 -68 10 -63 0 -80 -2 -67 -10 15 -9 17 -29
17 -189 l0 -180 -45 0 -45 0 0 180 c0 160 2 180 18 189 12 8 -5 10 -68 10 -63
0 -80 -2 -67 -10z"/>
</g>
</svg>
