<?xml version="1.0" standalone="no"?>
<!DOCTYPE svg PUBLIC "-//W3C//DTD SVG 20010904//EN"
 "http://www.w3.org/TR/2001/REC-SVG-20010904/DTD/svg10.dtd">
<svg version="1.0" xmlns="http://www.w3.org/2000/svg"
 width="484.000000pt" height="81.000000pt" viewBox="0 0 484.000000 81.000000"
 preserveAspectRatio="xMidYMid meet">

<g transform="translate(0.000000,81.000000) scale(0.100000,-0.100000)"
fill="#000000" stroke="none">
<path d="M4105 785 c-31 -30 -33 -84 -5 -173 47 -148 -2 -290 -70 -205 -23 29
-24 49 -4 220 9 71 -2 120 -30 138 -32 21 -117 22 -148 1 -56 -37 -61 -98 -18
-233 36 -113 37 -131 5 -258 -29 -117 -30 -134 -11 -180 28 -67 131 -99 172
-54 13 15 19 39 22 92 4 104 8 117 36 117 32 0 36 -15 29 -100 -5 -59 -3 -73
12 -90 41 -46 152 -33 180 20 29 55 29 110 0 256 -31 158 -29 192 15 285 16
35 30 75 30 89 0 58 -59 100 -140 100 -41 0 -56 -5 -75 -25z"/>
<path d="M1750 768 c-55 -37 -67 -89 -45 -197 38 -186 39 -227 7 -283 -22 -38
-43 -44 -64 -18 -23 28 -24 170 -3 250 28 105 13 204 -35 230 -28 15 -131 16
-158 1 -41 -22 -40 -99 4 -258 27 -100 29 -153 9 -238 -8 -33 -15 -83 -15
-110 0 -89 40 -120 176 -131 58 -5 96 -2 142 10 78 20 106 38 127 83 16 32 16
49 4 183 -13 156 -13 157 32 360 21 96 0 127 -95 137 -42 4 -57 1 -86 -19z"/>
<path d="M616 765 c-58 -21 -88 -46 -113 -95 -29 -55 -29 -104 -2 -217 16 -67
19 -102 14 -148 -15 -121 -12 -181 11 -212 34 -47 86 -66 178 -66 171 0 260
86 221 215 -12 42 -14 80 -9 183 6 107 4 141 -10 188 -23 81 -83 140 -155 156
-66 14 -87 13 -135 -4z m128 -279 c23 -48 34 -202 17 -235 -19 -34 -61 -25
-84 19 -15 29 -17 49 -12 115 7 88 28 149 47 143 7 -2 21 -21 32 -42z"/>
<path d="M1088 769 c-20 -6 -55 -26 -77 -45 -72 -62 -81 -138 -36 -304 19 -70
19 -117 0 -171 -17 -48 -13 -104 12 -152 23 -45 92 -71 188 -71 100 0 163 27
202 85 23 36 25 44 18 97 -5 31 -9 132 -9 223 -1 163 -1 166 -31 224 -22 44
-42 66 -75 87 -51 31 -134 43 -192 27z m121 -277 c31 -77 39 -205 15 -240 -36
-52 -86 -11 -92 76 -4 62 12 167 29 188 15 18 35 8 48 -24z"/>
<path d="M2024 774 c-37 -8 -57 -41 -62 -97 -3 -44 2 -67 29 -133 43 -102 44
-183 5 -293 -28 -79 -33 -156 -13 -182 20 -27 55 -40 107 -41 84 -2 105 35 78
135 -6 24 -8 52 -4 63 7 19 8 19 21 0 8 -10 19 -43 25 -73 15 -71 46 -106 90
-105 69 2 110 51 110 129 0 53 -10 64 -71 77 -36 8 -55 18 -57 29 -2 9 19 40
47 70 63 67 81 109 81 189 -1 108 -50 181 -142 212 -47 15 -206 28 -244 20z
m174 -231 c17 -33 24 -113 12 -148 -23 -69 -60 -25 -60 71 0 79 26 120 48 77z"/>
<path d="M2595 771 c-102 -26 -125 -85 -89 -224 21 -81 12 -141 -38 -249 -44
-99 -52 -172 -23 -228 30 -59 113 -64 167 -10 23 24 28 37 28 79 0 45 3 51 24
57 14 3 34 3 46 -1 20 -6 21 -12 15 -52 -9 -59 10 -89 64 -98 50 -8 100 7 132
41 35 38 30 103 -21 244 -52 144 -60 222 -32 302 26 71 20 94 -30 119 -44 22
-189 35 -243 20z m135 -321 c6 -19 13 -52 16 -72 6 -33 4 -39 -19 -49 -14 -6
-38 -8 -53 -5 -26 7 -27 8 -21 66 4 33 14 77 22 97 16 36 17 37 31 18 8 -10
19 -35 24 -55z"/>
<path d="M2993 770 c-25 -10 -43 -64 -36 -106 3 -16 16 -65 30 -109 31 -99 32
-180 4 -295 -11 -47 -21 -106 -21 -132 0 -39 4 -50 31 -72 17 -14 42 -29 55
-32 39 -10 186 1 217 16 31 15 57 56 58 92 0 17 4 12 15 -17 26 -72 104 -115
173 -95 71 20 88 57 65 141 -9 32 -14 65 -11 72 3 8 27 20 54 26 65 17 123 77
147 155 14 43 17 79 14 142 -4 73 -8 90 -34 126 -17 25 -49 52 -79 67 -44 23
-61 26 -155 26 -122 -1 -177 -16 -191 -52 -11 -29 -5 -54 32 -151 33 -83 38
-176 15 -258 -8 -27 -20 -69 -26 -93 -11 -42 -12 -43 -26 -22 -19 27 -39 27
-90 -1 -51 -26 -70 -20 -83 29 -19 68 -13 136 25 255 28 91 34 122 29 158 -9
61 -30 97 -66 115 -37 20 -117 28 -146 15z m605 -235 c16 -34 15 -108 0 -123
-17 -17 -45 -15 -52 4 -8 21 -8 129 1 137 14 15 40 6 51 -18z"/>
<path d="M4505 774 c-108 -30 -133 -85 -99 -218 22 -84 14 -143 -36 -260 -38
-88 -42 -105 -38 -159 4 -52 9 -64 36 -88 47 -42 93 -37 150 14 17 16 22 31
22 73 0 44 3 54 21 59 11 4 32 4 46 0 24 -6 25 -9 19 -51 -7 -57 4 -79 50 -94
46 -15 96 -6 134 26 27 24 30 31 30 87 0 44 -9 87 -31 147 -64 176 -71 233
-39 322 24 70 16 98 -35 122 -36 18 -190 30 -230 20z m125 -320 c11 -36 20
-77 20 -90 0 -30 -37 -49 -74 -40 -31 8 -33 33 -11 120 26 99 37 101 65 10z"/>
<path d="M290 738 c-11 -18 -20 -37 -20 -43 -1 -43 -21 -139 -31 -152 -12 -13
-14 -13 -26 3 -7 10 -13 38 -13 63 0 57 -16 115 -36 136 -37 36 -117 7 -149
-55 -31 -60 -14 -121 55 -196 81 -88 98 -175 60 -308 -34 -122 -17 -165 71
-181 27 -5 50 -1 82 13 73 32 90 88 67 213 -16 85 -15 180 3 214 8 17 38 58
66 93 48 60 56 79 51 127 -5 51 -70 105 -128 105 -26 0 -36 -6 -52 -32z"/>
</g>
</svg>
