<?xml version="1.0" standalone="no"?>
<!DOCTYPE svg PUBLIC "-//W3C//DTD SVG 20010904//EN"
 "http://www.w3.org/TR/2001/REC-SVG-20010904/DTD/svg10.dtd">
<svg version="1.0" xmlns="http://www.w3.org/2000/svg"
 width="543.000000pt" height="81.000000pt" viewBox="0 0 543.000000 81.000000"
 preserveAspectRatio="xMidYMid meet">

<g transform="translate(0.000000,81.000000) scale(0.100000,-0.100000)"
fill="#000000" stroke="none">
<path d="M3717 795 c-56 -21 -93 -50 -111 -89 -22 -47 -20 -82 9 -144 33 -72
32 -133 -5 -256 -47 -155 -36 -232 35 -262 44 -18 126 -18 169 0 38 16 76 60
76 89 0 12 -16 56 -37 99 -31 67 -35 82 -25 103 16 35 42 31 98 -15 64 -52
103 -54 148 -6 94 99 86 319 -14 410 -69 62 -114 79 -215 83 -61 2 -102 -2
-128 -12z m177 -157 c21 -30 20 -64 -4 -115 -31 -68 -70 -49 -70 35 0 88 39
130 74 80z"/>
<path d="M50 777 c-47 -24 -63 -88 -37 -150 8 -18 44 -58 80 -90 39 -34 74
-76 88 -104 l22 -46 -36 -107 c-32 -94 -35 -111 -26 -146 14 -50 53 -91 100
-106 33 -9 44 -8 86 13 54 27 93 77 93 120 0 16 -11 63 -25 106 -30 93 -31
148 -6 186 10 16 48 56 84 90 76 71 97 122 77 183 -37 112 -200 67 -200 -56 0
-74 -45 -124 -89 -100 -27 14 -38 35 -46 95 -9 60 -20 84 -49 107 -25 21 -81
23 -116 5z"/>
<path d="M782 779 c-49 -9 -86 -33 -131 -84 -95 -108 -140 -331 -97 -479 44
-151 225 -227 391 -165 73 27 108 58 140 124 85 173 -4 507 -155 581 -56 28
-93 33 -148 23z m71 -167 c19 -21 47 -122 47 -170 0 -75 -55 -120 -106 -87
-30 19 -38 51 -32 129 6 76 39 145 69 146 3 0 13 -8 22 -18z"/>
<path d="M1203 766 l-28 -24 3 -145 c2 -95 -2 -180 -12 -249 -16 -105 -11
-181 13 -226 14 -25 62 -68 97 -85 75 -38 235 -43 329 -10 119 42 161 177 115
376 -17 75 -21 113 -16 160 21 192 21 182 -9 205 -20 16 -42 22 -76 22 -59 0
-93 -15 -108 -47 -15 -33 -14 -48 10 -149 24 -101 19 -166 -15 -216 -23 -35
-61 -47 -94 -29 -52 28 -67 143 -32 253 42 135 17 188 -89 188 -49 0 -65 -4
-88 -24z"/>
<path d="M1875 772 c-57 -27 -77 -54 -83 -110 -3 -36 3 -67 22 -121 14 -40 26
-85 26 -101 0 -15 -13 -80 -30 -143 -38 -147 -39 -195 -4 -230 51 -51 160 -49
207 3 32 36 34 58 6 129 -15 42 -19 66 -14 104 7 44 26 69 42 53 3 -3 12 -50
20 -105 23 -166 44 -202 130 -221 76 -18 144 21 164 92 15 58 -13 110 -99 187
-39 34 -73 68 -75 75 -3 7 13 48 35 92 36 73 39 84 36 146 -3 58 -8 71 -33 98
-45 48 -88 61 -205 66 -89 4 -111 2 -145 -14z m190 -113 c25 -47 -5 -149 -44
-149 -24 0 -31 19 -31 80 0 93 43 132 75 69z"/>
<path d="M2625 772 c-46 -22 -102 -81 -111 -118 -4 -14 -4 -56 0 -92 18 -174
18 -175 -6 -214 -13 -21 -45 -68 -71 -106 -64 -91 -71 -136 -30 -182 26 -29
37 -34 90 -38 134 -10 208 78 168 198 -28 83 -4 160 50 160 59 0 85 -100 52
-201 -32 -98 2 -148 106 -157 92 -7 151 24 175 93 6 17 11 23 11 14 1 -21 49
-65 86 -79 96 -36 339 -31 378 9 26 25 35 130 17 185 -26 80 -100 99 -154 40
-20 -22 -40 -35 -51 -33 -31 7 -56 53 -67 125 -11 73 -9 84 43 250 14 45 20
80 15 98 -16 63 -146 91 -202 43 -38 -33 -44 -103 -14 -193 32 -95 29 -151
-13 -259 -19 -49 -39 -108 -43 -130 l-7 -40 -13 37 c-7 20 -37 72 -68 117 -63
93 -73 130 -57 216 17 97 14 147 -12 186 -51 75 -187 111 -272 71z m133 -144
c17 -17 15 -74 -4 -92 -18 -19 -38 -20 -65 -6 -24 13 -26 72 -3 94 18 19 55
21 72 4z"/>
<path d="M4213 770 c-62 -37 -66 -73 -23 -175 42 -98 40 -148 -11 -282 -22
-60 -43 -131 -46 -158 -5 -44 -2 -55 21 -82 61 -73 230 -61 271 18 21 39 19
66 -11 159 -14 45 -24 93 -22 108 3 23 8 27 40 30 47 4 78 -12 78 -41 0 -12
-9 -56 -21 -97 -11 -41 -21 -92 -21 -113 -1 -53 38 -92 107 -108 46 -10 57 -9
97 9 64 28 81 58 76 130 -3 42 -16 83 -47 147 -61 127 -63 162 -13 271 55 121
56 126 32 157 -39 50 -156 62 -201 21 -18 -16 -20 -27 -15 -69 20 -175 21
-161 -8 -180 -28 -19 -102 -23 -119 -6 -7 7 -4 39 7 97 20 99 15 146 -17 169
-31 22 -115 19 -154 -5z"/>
<path d="M5003 769 c-91 -45 -124 -118 -105 -230 25 -144 20 -164 -72 -288
-57 -78 -70 -121 -51 -167 34 -82 183 -87 255 -9 27 29 31 73 15 182 -9 64 -1
99 26 114 33 17 69 3 85 -36 19 -46 18 -91 -4 -156 -25 -74 -13 -113 45 -143
40 -20 125 -21 163 -1 40 20 70 62 70 97 0 41 -21 86 -79 169 -68 96 -76 128
-57 229 22 116 7 174 -58 218 -68 47 -164 55 -233 21z m147 -161 c13 -25 13
-31 0 -55 -28 -50 -100 -35 -100 20 0 65 70 89 100 35z"/>
</g>
</svg>
