<?xml version="1.0" encoding="UTF-8"?>
<svg version="1.1" xmlns="http://www.w3.org/2000/svg" width="437" height="105">
<path d="M0 0 C2.86724686 0.57344937 3.8614515 0.8614515 6 3 C6.12375 4.299375 6.2475 5.59875 6.375 6.9375 C6.63372266 10.29093243 6.63372266 10.29093243 8.9375 12.6875 C9.9584375 13.3371875 9.9584375 13.3371875 11 14 C11.71910021 15.64472402 12.39159352 17.31119457 13 19 C13.51046875 18.48050781 14.0209375 17.96101563 14.546875 17.42578125 C23.44981058 8.88590865 33.85272226 4.59153182 46.1953125 4.79296875 C56.71222404 5.56928673 66.23811651 9.26316817 73.796875 16.7890625 C75.1875 18.4375 75.1875 18.4375 77 21 C77.40992188 20.4946875 77.81984375 19.989375 78.2421875 19.46875 C78.78101563 18.8190625 79.31984375 18.169375 79.875 17.5 C80.40867187 16.8503125 80.94234375 16.200625 81.4921875 15.53125 C81.98976563 15.0259375 82.48734375 14.520625 83 14 C83.66 14 84.32 14 85 14 C84.814375 12.906875 84.62875 11.81375 84.4375 10.6875 C84 7 84 7 85 4 C87.375 3.375 87.375 3.375 90 3 C92 5 92 5 92.4375 7.0625 C92.623125 7.701875 92.80875 8.34125 93 9 C93.99 9.33 94.98 9.66 96 10 C96 11.98 96 13.96 96 16 C95.43152344 16.23074219 94.86304688 16.46148438 94.27734375 16.69921875 C88.96987179 18.94093896 84.57347061 21.49691613 80 25 C80.50660156 26.01707031 80.50660156 26.01707031 81.0234375 27.0546875 C87.82403653 41.24553288 89.38622738 57.01536107 85 72.26171875 C83.37598254 76.70873531 81.31010614 80.87285386 79 85 C79.78632813 85.27585937 80.57265625 85.55171875 81.3828125 85.8359375 C84 87 84 87 85.875 89.625 C86.57625 90.40875 87.2775 91.1925 88 92 C91.54178598 92.25003964 91.54178598 92.25003964 95 92 C96.485 92.99 96.485 92.99 98 94 C97.8125 96.375 97.8125 96.375 97 99 C94.5 100.125 94.5 100.125 92 101 C91.505 102.485 91.505 102.485 91 104 C89.02 104 87.04 104 85 104 C84.75765625 103.41992188 84.5153125 102.83984375 84.265625 102.2421875 C82.21606386 97.46513347 80.03182285 93.22289611 77 89 C76.5153125 89.37511719 76.030625 89.75023438 75.53125 90.13671875 C73.37280912 91.78460535 71.19357293 93.39918258 69 95 C68.36449219 95.4640625 67.72898437 95.928125 67.07421875 96.40625 C58.36837595 102.31829232 48.39008811 104.15879429 38 103 C26.94457681 100.7299189 19.6105686 96.08622913 12 88 C11.59007813 88.5053125 11.18015625 89.010625 10.7578125 89.53125 C10.21898438 90.1809375 9.68015625 90.830625 9.125 91.5 C8.32449219 92.47453125 8.32449219 92.47453125 7.5078125 93.46875 C7.01023437 93.9740625 6.51265625 94.479375 6 95 C5.34 95 4.68 95 4 95 C4.08378906 95.63808594 4.16757813 96.27617188 4.25390625 96.93359375 C4.35574219 97.75988281 4.45757812 98.58617188 4.5625 99.4375 C4.66691406 100.26121094 4.77132812 101.08492188 4.87890625 101.93359375 C4.91886719 102.61550781 4.95882812 103.29742187 5 104 C4 105 4 105 1.625 105.375 C0.75875 105.25125 -0.1075 105.1275 -1 105 C-2.6875 102.5625 -2.6875 102.5625 -4 100 C-4.66 99.67 -5.32 99.34 -6 99 C-6 97.02 -6 95.04 -6 93 C-5.33613281 92.68546875 -4.67226563 92.3709375 -3.98828125 92.046875 C0.75696442 89.74698951 5.04603186 87.55857132 9 84 C8.67386719 83.45214844 8.34773438 82.90429688 8.01171875 82.33984375 C-0.37205291 67.13034648 -0.70310162 50.40055951 4 34 C5.73693486 30.14603766 7.71629129 26.55489932 10 23 C4.91047439 17.93754633 1.14666741 15.14857155 -6 14 C-6 11.36 -6 8.72 -6 6 C-4.68 6 -3.36 6 -2 6 C-1.855625 5.38125 -1.71125 4.7625 -1.5625 4.125 C-1 2 -1 2 0 0 Z M18.6875 25.3125 C14.18509799 30.96551585 12.1186016 36.93886515 11 44 C11.74459473 43.87882812 12.48918945 43.75765625 13.25634766 43.6328125 C40.55412903 39.24288013 40.55412903 39.24288013 52 40 C53.16917969 40.05542969 54.33835938 40.11085938 55.54296875 40.16796875 C60.8659052 40.48108266 65.06014418 40.97840884 70 43 C72.3320802 43.07646165 74.66845878 43.09143299 77 43 C76.46790816 34.84125846 73.2769507 27.73090624 67.25 22.125 C52.24645682 10.12216545 31.75343087 11.19604202 18.6875 25.3125 Z M66 45 C66.495 45.99 66.495 45.99 67 47 C67.59753091 54.1703709 66.25688973 61.19413709 61.6875 66.875 C58.86931742 69.10333041 56.04154258 71.0901942 53 73 C53.185625 73.61875 53.37125 74.2375 53.5625 74.875 C54 77 54 77 53 79 C53.99 79 54.98 79 56 79 C51.81308411 85.87850467 51.81308411 85.87850467 48 87 C44.0474241 87.51555338 42.2955585 87.15914688 38.75 85.25 C36.22669255 83.18547572 35.07622061 82.0134177 34 79 C34.99 78.505 34.99 78.505 36 78 C36 77.01 36 76.02 36 75 C36.33 74.34 36.66 73.68 37 73 C36.20335937 72.54560547 36.20335937 72.54560547 35.390625 72.08203125 C27.54535381 67.42927005 24.33393086 62.75224072 22 54 C21.61580002 52.00914554 21.25783678 50.01112687 21 48 C17.7 48 14.4 48 11 48 C8.95939105 58.40710567 10.91496654 68.7347433 16 78 C16.42796875 78.82113281 16.8559375 79.64226562 17.296875 80.48828125 C19.30129989 83.44434823 21.41230103 85.11363711 24.3125 87.1875 C25.23675781 87.86167969 26.16101563 88.53585938 27.11328125 89.23046875 C35.53522933 94.39304315 44.93238799 94.73042627 54.390625 92.7265625 C63.72673361 90.12698735 70.17150603 84.34163958 75 76 C78.71189286 67.21109665 79.50133397 58.48111016 79 49 C77.84712427 47.64497454 77.84712427 47.64497454 74.75 47.5625 C71.47766726 47.07165009 68.98738612 46.35790278 66 45 Z M29 51 C26.92023288 53.16071467 26.92023288 53.16071467 26 56 C26.55490203 59.73540832 26.55490203 59.73540832 28 63 C31.12860495 64.56430248 33.55602925 64.35627284 37 64 C39.63939261 61.63131433 40.78685064 60.03910313 41.5 56.5625 C40.80538187 53.00258209 39.27266414 50.79213023 37 48 C33.31446856 48 31.96240248 48.8522582 29 51 Z M50 51 C47.76521904 53.72060291 48.00326111 55.04728605 48.25 58.625 C48.69481185 62.05272884 48.69481185 62.05272884 51 64 C55.40163946 64.58134861 57.33527144 64.47084939 61 61.875 C63.27343631 59.17303694 63.27343631 59.17303694 63.0625 56 C61.8749877 52.64702409 60.47162832 50.54652615 58 48 C54.81916096 48 52.70821597 49.42020735 50 51 Z M44 65 C43.01 66.485 43.01 66.485 42 68 C43.485 68.99 43.485 68.99 45 70 C45.66 69.01 46.32 68.02 47 67 C46.01 66.34 45.02 65.68 44 65 Z M40 74 C40 74.66 40 75.32 40 76 C40.99 75.67 41.98 75.34 43 75 C42.01 74.67 41.02 74.34 40 74 Z M46 74 C46.66 74.66 47.32 75.32 48 76 C48.33 75.34 48.66 74.68 49 74 C48.01 74 47.02 74 46 74 Z M40 77 C39.67 77.99 39.34 78.98 39 80 C40.32 79.67 41.64 79.34 43 79 C42.01 78.34 41.02 77.68 40 77 Z M48 77 C47.01 78.485 47.01 78.485 46 80 C47.65 80 49.3 80 51 80 C50.01 79.01 49.02 78.02 48 77 Z " fill="#000000" transform="translate(65,0)"/>
<path d="M0 0 C4.53471686 -0.17451545 9.06743439 -0.30073676 13.60473633 -0.38452148 C15.14414559 -0.41948243 16.68332655 -0.46707162 18.22192383 -0.52807617 C20.44930528 -0.61410616 22.67359041 -0.65292276 24.90234375 -0.68359375 C25.5777269 -0.71972275 26.25311005 -0.75585175 26.94895935 -0.79307556 C32.35229201 -0.79740406 36.12488189 1.18380993 40.21226501 4.6648407 C43.72918863 9.25868541 43.17741267 14.41171735 43.01953125 19.9765625 C43.0146595 21.84167984 43.0146595 21.84167984 43.00968933 23.74447632 C42.98991747 27.03538622 42.92912132 30.32231277 42.85113525 33.61224365 C42.78696999 36.95502076 42.79531565 40.29725155 42.79101562 43.640625 C42.76710142 46.19014571 42.73924112 48.7396331 42.70703125 51.2890625 C42.69564873 53.08762192 42.69564873 53.08762192 42.68403625 54.92251587 C42.4733844 63.1165004 42.4733844 63.1165004 40.26831055 67.23193359 C37.77884865 69.17237952 36.12376341 69.73968638 33 70 C33.24234375 70.59538574 33.4846875 71.19077148 33.734375 71.80419922 C34.82649824 74.49302765 35.91330919 77.18397174 37 79.875 C37.3815625 80.81214844 37.763125 81.74929687 38.15625 82.71484375 C38.5171875 83.61074219 38.878125 84.50664063 39.25 85.4296875 C39.58515625 86.25710449 39.9203125 87.08452148 40.265625 87.93701172 C41 90 41 90 41 92 C42.32 92.33 43.64 92.66 45 93 C45 94.32 45 95.64 45 97 C39.06 97 33.12 97 27 97 C27.33 95.35 27.66 93.7 28 92 C28 88.5592958 27.80778299 86.97140323 26.6875 83.890625 C26.41679687 83.13652344 26.14609375 82.38242188 25.8671875 81.60546875 C25.58101562 80.82816406 25.29484375 80.05085938 25 79.25 C24.57074219 78.06083984 24.57074219 78.06083984 24.1328125 76.84765625 C23.42753306 74.89638313 22.71451701 72.94790947 22 71 C19.525 71.99 19.525 71.99 17 73 C16.67 80.92 16.34 88.84 16 97 C10.72 97 5.44 97 0 97 C0.32466248 95.69824326 0.64932495 94.39648651 0.98382568 93.05528259 C2.02494098 88.34833327 2.28410218 83.92157095 2.25878906 79.11547852 C2.2622937 78.27856979 2.26579834 77.44166107 2.26940918 76.57939148 C2.27812834 73.84580914 2.27241619 71.11249067 2.265625 68.37890625 C2.26697358 66.46841889 2.26891573 64.55793187 2.27142334 62.64744568 C2.27436051 58.66084497 2.27011906 54.67433433 2.26074219 50.68774414 C2.24929409 45.57074942 2.2559497 40.45396329 2.26788712 35.33697605 C2.27509758 31.40028801 2.27282249 27.46364988 2.26763153 23.52696037 C2.26629558 21.63904737 2.26794084 19.75112987 2.27259064 17.86322212 C2.2776484 15.23494467 2.26995884 12.60701144 2.25878906 9.97875977 C2.26283752 9.19592621 2.26688599 8.41309265 2.27105713 7.60653687 C2.39051098 3.34153216 2.39051098 3.34153216 0 0 Z M19.47460938 12.94287109 C16.15944128 17.03842505 16.3037733 19.80212418 16.40625 24.9140625 C16.40620972 25.76551849 16.40616943 26.61697449 16.40612793 27.49423218 C16.41147423 29.28789685 16.42901905 31.08156163 16.45800781 32.875 C16.49997131 35.62312116 16.49906584 38.36879904 16.4921875 41.1171875 C16.50267681 42.86199622 16.51561352 44.60679231 16.53125 46.3515625 C16.53145142 47.17347076 16.53165283 47.99537903 16.53186035 48.8421936 C16.50376189 53.08636865 16.50376189 53.08636865 18.39147949 56.72665405 C19.94293146 58.19026218 19.94293146 58.19026218 22.15625 58.21484375 C22.9296875 58.12332031 23.703125 58.03179687 24.5 57.9375 C25.2734375 57.86402344 26.046875 57.79054687 26.84375 57.71484375 C29.80650968 56.73262451 30.44976771 55.71614289 32 53 C32.36398669 50.24142207 32.56225257 47.70986542 32.609375 44.9453125 C32.62647522 44.16614471 32.64357544 43.38697693 32.66119385 42.584198 C32.68947749 40.93857972 32.70911964 39.29279322 32.72070312 37.64697266 C32.74984993 35.13791813 32.84290257 32.63623078 32.9375 30.12890625 C33.35113416 21.80215328 33.35113416 21.80215328 29.97851562 14.53027344 C24.72486468 10.78224379 24.72486468 10.78224379 19.47460938 12.94287109 Z " fill="#000000" transform="translate(170,8)"/>
<path d="M0 0 C4.53471686 -0.17451545 9.06743439 -0.30073676 13.60473633 -0.38452148 C15.14414559 -0.41948243 16.68332655 -0.46707162 18.22192383 -0.52807617 C20.44930528 -0.61410616 22.67359041 -0.65292276 24.90234375 -0.68359375 C25.5777269 -0.71972275 26.25311005 -0.75585175 26.94895935 -0.79307556 C32.35229201 -0.79740406 36.12488189 1.18380993 40.21226501 4.6648407 C43.72918863 9.25868541 43.17741267 14.41171735 43.01953125 19.9765625 C43.0146595 21.84167984 43.0146595 21.84167984 43.00968933 23.74447632 C42.98991747 27.03538622 42.92912132 30.32231277 42.85113525 33.61224365 C42.78696999 36.95502076 42.79531565 40.29725155 42.79101562 43.640625 C42.76710142 46.19014571 42.73924112 48.7396331 42.70703125 51.2890625 C42.69564873 53.08762192 42.69564873 53.08762192 42.68403625 54.92251587 C42.47259389 63.14724971 42.47259389 63.14724971 40.20385742 67.2409668 C37.93456131 69.05223062 36.88529653 69.6631038 34.03125 69.85546875 C33.29519531 69.92056641 32.55914062 69.98566406 31.80078125 70.05273438 C31.04152344 70.09720703 30.28226562 70.14167969 29.5 70.1875 C24.82702766 70.53261765 21.29087515 70.85456243 17 73 C16.67 80.92 16.34 88.84 16 97 C10.72 97 5.44 97 0 97 C0.32466248 95.69824326 0.64932495 94.39648651 0.98382568 93.05528259 C2.02494098 88.34833327 2.28410218 83.92157095 2.25878906 79.11547852 C2.2622937 78.27856979 2.26579834 77.44166107 2.26940918 76.57939148 C2.27812834 73.84580914 2.27241619 71.11249067 2.265625 68.37890625 C2.26697358 66.46841889 2.26891573 64.55793187 2.27142334 62.64744568 C2.27436051 58.66084497 2.27011906 54.67433433 2.26074219 50.68774414 C2.24929409 45.57074942 2.2559497 40.45396329 2.26788712 35.33697605 C2.27509758 31.40028801 2.27282249 27.46364988 2.26763153 23.52696037 C2.26629558 21.63904737 2.26794084 19.75112987 2.27259064 17.86322212 C2.2776484 15.23494467 2.26995884 12.60701144 2.25878906 9.97875977 C2.26283752 9.19592621 2.26688599 8.41309265 2.27105713 7.60653687 C2.39051098 3.34153216 2.39051098 3.34153216 0 0 Z M18.78100586 13.44897461 C16.18055622 17.17373106 16.443261 20.37342819 16.50390625 24.81640625 C16.50245102 25.66927719 16.50099579 26.52214813 16.49949646 27.40086365 C16.50115383 29.2004641 16.51269701 31.00007896 16.53344727 32.79956055 C16.56243625 35.55643748 16.55404685 38.31139517 16.54101562 41.06835938 C16.54725221 42.81771769 16.55564254 44.56706993 16.56640625 46.31640625 C16.56347061 47.14145157 16.56053497 47.96649689 16.55751038 48.81654358 C16.50714894 53.07366826 16.50714894 53.07366826 18.39048767 56.72764587 C19.94305667 58.19006715 19.94305667 58.19006715 22.15625 58.21484375 C22.9296875 58.12332031 23.703125 58.03179687 24.5 57.9375 C25.2734375 57.86402344 26.046875 57.79054687 26.84375 57.71484375 C29.80848167 56.73197075 30.4532719 55.72094577 32 53 C32.3402039 50.22853349 32.51514178 47.68483005 32.5390625 44.91015625 C32.55141937 44.12861679 32.56377625 43.34707733 32.57650757 42.54185486 C32.59604109 40.89199285 32.60730016 39.24201485 32.61083984 37.59204102 C32.62494093 35.07305189 32.69230101 32.55900868 32.76171875 30.04101562 C32.77411672 28.43491782 32.7833366 26.8287917 32.7890625 25.22265625 C32.81578033 24.47355484 32.84249817 23.72445343 32.87002563 22.95265198 C32.83099205 19.93609442 32.59907023 17.66010574 30.5289917 15.37911987 C26.67222707 12.44054977 23.38351444 10.44359575 18.78100586 13.44897461 Z " fill="#000000" transform="translate(336,8)"/>
<path d="M0 0 C6.6 0 13.2 0 20 0 C20 1.98 20 3.96 20 6 C19.360625 6.268125 18.72125 6.53625 18.0625 6.8125 C15.66868314 7.88667752 15.66868314 7.88667752 15 11 C14.8470353 13.51054905 14.74304822 15.99888525 14.68359375 18.51171875 C14.66281265 19.23994339 14.64203156 19.96816803 14.62062073 20.71846008 C14.55531254 23.04137875 14.49632763 25.36440906 14.4375 27.6875 C14.39429695 29.26368335 14.35068208 30.83985548 14.30664062 32.41601562 C14.19887632 36.27723104 14.09966444 40.138533 14 44 C21.26 44 28.52 44 36 44 C35.90257041 39.99769513 35.79953994 35.99611373 35.68261719 31.99438477 C35.64455921 30.63574737 35.60966779 29.27701715 35.578125 27.91821289 C35.53196786 25.95437081 35.47311503 23.99084037 35.4140625 22.02734375 C35.3826416 20.84906006 35.3512207 19.67077637 35.31884766 18.45678711 C34.97611366 14.74103623 34.2362864 11.5188081 33 8 C31.01432266 6.50256112 31.01432266 6.50256112 29 6 C29 4.02 29 2.04 29 0 C35.6 0 42.2 0 49 0 C49 1.98 49 3.96 49 6 C48.360625 6.268125 47.72125 6.53625 47.0625 6.8125 C44.66868314 7.88667752 44.66868314 7.88667752 44 11 C43.89909691 13.45786467 43.85315163 15.88743068 43.85473633 18.34545898 C43.85137772 19.09049683 43.8480191 19.83553467 43.84455872 20.60314941 C43.83505511 23.06748112 43.83310596 25.53174485 43.83203125 27.99609375 C43.82881846 29.70858285 43.82545437 31.42107167 43.82194519 33.13356018 C43.81595555 36.7238936 43.81410514 40.31420295 43.81469727 43.90454102 C43.81479892 48.50584126 43.80114211 53.10698732 43.78392506 57.708251 C43.77280902 61.24527191 43.77077793 64.78225548 43.77130699 68.31929207 C43.77012646 70.01576329 43.76570055 71.71223546 43.75797462 73.4086895 C43.74818191 75.78095189 43.75104976 78.15287874 43.75708008 80.52514648 C43.75146057 81.22605911 43.74584106 81.92697174 43.74005127 82.64912415 C43.76315637 86.22439611 43.83950639 89.05994133 46 92 C46.99 92.33 47.98 92.66 49 93 C49 94.98 49 96.96 49 99 C42.4 99 35.8 99 29 99 C29 97.35 29 95.7 29 94 C29.804375 93.525625 30.60875 93.05125 31.4375 92.5625 C34.26071517 91.2536431 34.26071517 91.2536431 34.64038086 88.40380859 C35.04299681 84.5930336 35.22664542 80.80460907 35.31640625 76.9765625 C35.33718735 76.23038666 35.35796844 75.48421082 35.37937927 74.71542358 C35.4443123 72.35203492 35.50349571 69.98854336 35.5625 67.625 C35.60573884 66.01431265 35.64935477 64.40363537 35.69335938 62.79296875 C35.80063896 58.86208266 35.90012858 54.9311091 36 51 C28.74 51 21.48 51 14 51 C14.09689518 56.3572836 14.19959854 61.71378594 14.31738281 67.07055664 C14.35567995 68.89307824 14.39053155 70.71567563 14.421875 72.53833008 C14.46750979 75.15733941 14.52550622 77.77582674 14.5859375 80.39453125 C14.59748871 81.21025101 14.60903992 82.02597076 14.62094116 82.8664093 C14.72197274 86.73364504 14.8077319 88.71159785 17 92 C18.485 92.495 18.485 92.495 20 93 C20 94.98 20 96.96 20 99 C13.4 99 6.8 99 0 99 C0 97.35 0 95.7 0 94 C0.81231079 93.56127563 1.62462158 93.12255127 2.46154785 92.67053223 C3.29923706 92.11925659 4.13692627 91.56798096 5 91 C5.50507739 88.22400897 5.66491689 86.0505931 5.61523438 83.27148438 C5.62078339 82.48582596 5.6263324 81.70016754 5.63204956 80.89070129 C5.64387018 78.29109901 5.6195481 75.69323061 5.59375 73.09375 C5.59203947 71.28918538 5.59210399 69.48461827 5.59387207 67.68005371 C5.59221747 63.89697518 5.57349405 60.11448826 5.54199219 56.33154297 C5.5023139 51.47888846 5.49794595 46.62700926 5.50545502 41.77422333 C5.50852249 38.04759602 5.49641216 34.32114349 5.47932434 30.59455872 C5.47228587 28.80517168 5.46917083 27.01576482 5.47001648 25.22636414 C5.46822154 22.72671615 5.44686681 20.22800238 5.41992188 17.72851562 C5.42285248 16.98660477 5.42578308 16.24469391 5.42880249 15.4803009 C5.37667821 11.51879262 5.37667821 11.51879262 3.59875488 8.07946777 C1.97870106 6.93523942 1.97870106 6.93523942 0 6 C0 4.02 0 2.04 0 0 Z " fill="#000000" transform="translate(388,6)"/>
<path d="M0 0 C8.25 0 16.5 0 25 0 C25 1.98 25 3.96 25 6 C22.69 6.33 20.38 6.66 18 7 C20.95150471 20.37886018 25.35039002 33.12728066 30 46 C31.57854897 41.55670524 33.14468249 37.10929716 34.69970703 32.65771484 C35.22988313 31.14546759 35.76337179 29.6343773 36.30029297 28.12451172 C37.07362786 25.94798291 37.83476418 23.76750518 38.59375 21.5859375 C38.83436157 20.91694427 39.07497314 20.24795105 39.32287598 19.5586853 C40.69373246 15.57356012 41.2505505 12.20810946 41 8 C39.02 7.34 37.04 6.68 35 6 C35 4.02 35 2.04 35 0 C41.93 0 48.86 0 56 0 C56 1.98 56 3.96 56 6 C55.08863281 6.60714844 54.17726562 7.21429688 53.23828125 7.83984375 C48.86771123 10.75531447 47.93254166 13.7436758 46.1875 18.5625 C45.86201172 19.43745117 45.53652344 20.31240234 45.20117188 21.21386719 C44.49662828 23.12705599 43.80153498 25.04374506 43.11474609 26.96337891 C41.97336836 30.07254585 40.73663125 33.13161241 39.48828125 36.19921875 C34.47219657 49.0845293 32.15181447 60.76339641 32.1875 74.5 C32.18564697 75.2065271 32.18379395 75.9130542 32.18188477 76.64099121 C32.1709236 82.86215631 32.1709236 82.86215631 33 89 C35.47620129 91.4110966 37.61393581 92.39534568 41 93 C41 94.98 41 96.96 41 99 C31.76 99 22.52 99 13 99 C13 97.35 13 95.7 13 94 C14.134375 93.525625 15.26875 93.05125 16.4375 92.5625 C19.75740166 91.36377917 19.75740166 91.36377917 21 90 C23.47698456 70.69842872 20.82723525 53.28154141 14.75 34.9375 C14.45623474 34.0494165 14.16246948 33.16133301 13.85980225 32.24633789 C11.51532766 25.25582357 9.1384043 18.29014215 6.04785156 11.58813477 C5.75219299 10.94634781 5.45653442 10.30456085 5.1519165 9.64332581 C3.71915155 7.59934118 2.27772828 6.9438674 0 6 C0 4.02 0 2.04 0 0 Z " fill="#000000" transform="translate(0,6)"/>
<path d="M0 0 C1.32 0.33 2.64 0.66 4 1 C4.19378738 2.07883957 4.38757477 3.15767914 4.5872345 4.26921082 C6.41525388 14.43843848 8.25391073 24.60569264 10.10298634 34.7711134 C11.05326147 39.99725739 11.99978227 45.22402344 12.93774414 50.45239258 C13.84314844 55.49848609 14.75838656 60.5427053 15.68045616 65.58577919 C16.03042754 67.50964249 16.37685707 69.43415358 16.71967506 71.35930443 C17.20063305 74.05668773 17.69415928 76.75148817 18.19067383 79.44604492 C18.32949982 80.24158279 18.46832581 81.03712067 18.61135864 81.85676575 C19.41213483 86.12123679 20.33370666 89.45992134 23 93 C23.99 93.66 24.98 94.32 26 95 C26 96.65 26 98.3 26 100 C19.07 100 12.14 100 5 100 C5 98.35 5 96.7 5 95 C7.5 93.1875 7.5 93.1875 10 92 C9.45464329 83.23123809 8.42902022 74.66938936 7 66 C2.05 66.33 -2.9 66.66 -8 67 C-8.52925422 70.60311486 -9.04873533 74.20717325 -9.5625 77.8125 C-9.71396484 78.83666016 -9.86542969 79.86082031 -10.02148438 80.91601562 C-10.16005859 81.89892578 -10.29863281 82.88183594 -10.44140625 83.89453125 C-10.57232666 84.80050049 -10.70324707 85.70646973 -10.83813477 86.63989258 C-11.16074293 89.15176873 -11.16074293 89.15176873 -10 92 C-7.49552484 93.21869929 -7.49552484 93.21869929 -5 94 C-5 95.98 -5 97.96 -5 100 C-10.94 100 -16.88 100 -23 100 C-23 98.02 -23 96.04 -23 94 C-22.37153168 93.91540527 -21.74306335 93.83081055 -21.09555054 93.74365234 C-18.88826727 93.21813556 -18.88826727 93.21813556 -18.07754517 91.36962891 C-15.69871618 82.47161841 -14.09642264 73.43295825 -12.4609375 64.375 C-12.13189486 62.57793774 -11.80226471 60.78098297 -11.47207642 58.98413086 C-10.60959979 54.28407979 -9.75329526 49.58292838 -8.89886475 44.88140869 C-7.52574215 37.32883448 -6.14545383 29.77757819 -4.76079178 22.22711182 C-4.27880673 19.59185632 -3.80088783 16.95588579 -3.32333374 14.31982422 C-3.02999165 12.71449164 -2.73651174 11.10918424 -2.44287109 9.50390625 C-2.31091843 8.76939743 -2.17896576 8.03488861 -2.04301453 7.27812195 C-1.1136691 2.22733821 -1.1136691 2.22733821 0 0 Z M0 26 C-2.21271188 36.96029949 -3.83024498 47.88044635 -5 59 C-1.37 59 2.26 59 6 59 C4.35 48.11 2.7 37.22 1 26 C0.67 26 0.34 26 0 26 Z " fill="#000000" transform="translate(244,5)"/>
<path d="M0 0 C8.91 0 17.82 0 27 0 C27 1.98 27 3.96 27 6 C25.865625 6.4125 24.73125 6.825 23.5625 7.25 C19.9851676 8.52510495 19.9851676 8.52510495 19.28741455 10.68058777 C18.90646607 13.75481126 18.85605025 16.7619291 18.83886719 19.8605957 C18.83390228 20.54243927 18.82893738 21.22428284 18.82382202 21.92678833 C18.80924977 24.17646301 18.80240649 26.42606717 18.796875 28.67578125 C18.79111925 30.24513245 18.78536157 31.81448365 18.77960205 33.38383484 C18.76910594 36.67312954 18.76325427 39.9623999 18.75976562 43.25170898 C18.75428544 47.45480731 18.73026191 51.65758095 18.70179367 55.86057758 C18.68311706 59.10262475 18.67795902 62.3445945 18.67642975 65.5866909 C18.67341375 67.13555869 18.66542092 68.68442545 18.65224457 70.23324013 C18.63507903 72.40614751 18.63708938 74.57827196 18.64355469 76.7512207 C18.63990906 77.98491898 18.63626343 79.21861725 18.63250732 80.48970032 C19.07105652 84.67873374 20.01493401 87.29330781 22 91 C27.54885563 92.84961854 32.9415324 92.79897602 38.3125 90.375 C43.02622937 87.73643834 45.30822627 84.0753212 47 79 C47.66 79 48.32 79 49 79 C49.02712351 81.39591038 49.0468982 83.79150957 49.0625 86.1875 C49.07087891 86.86103516 49.07925781 87.53457031 49.08789062 88.22851562 C49.10654779 92.05323378 48.75942257 95.20288716 48 99 C32.16 99 16.32 99 0 99 C0 97.35 0 95.7 0 94 C3.465 93.01 3.465 93.01 7 92 C7.8489156 87.58003451 8.13132288 83.39451604 8.14526367 78.89648438 C8.14862228 78.21274246 8.1519809 77.52900055 8.15544128 76.82453918 C8.16488325 74.58092395 8.16689072 72.33738382 8.16796875 70.09375 C8.17118511 68.52486135 8.17454947 66.95597299 8.17805481 65.38708496 C8.18402851 62.10554306 8.18589643 58.82402742 8.18530273 55.54248047 C8.185201 51.34613961 8.19887246 47.14996752 8.21607494 42.95366669 C8.22721235 39.71595491 8.22922144 36.47828378 8.22869301 33.24055481 C8.22986975 31.6936637 8.23427433 30.14677143 8.24202538 28.59989929 C8.25186428 26.43431863 8.24893247 24.26910264 8.24291992 22.10351562 C8.24434494 20.87362915 8.24576996 19.64374268 8.24723816 18.37658691 C7.99140576 14.88262654 7.4139736 12.20291775 6 9 C2.9994093 7.08160141 2.9994093 7.08160141 0 6 C0 4.02 0 2.04 0 0 Z " fill="#000000" transform="translate(277,6)"/>
<path d="M0 0 C5.05289805 2.26408701 8.76342091 5.7066009 11.78125 10.34765625 C11.78125 11.00765625 11.78125 11.66765625 11.78125 12.34765625 C11.12125 12.67765625 10.46125 13.00765625 9.78125 13.34765625 C10.44125 14.00765625 11.10125 14.66765625 11.78125 15.34765625 C-1.41875 15.34765625 -14.61875 15.34765625 -28.21875 15.34765625 C-28.21875 14.68765625 -28.21875 14.02765625 -28.21875 13.34765625 C-27.22875 13.01765625 -26.23875 12.68765625 -25.21875 12.34765625 C-25.87875 12.34765625 -26.53875 12.34765625 -27.21875 12.34765625 C-27.01953125 10.046875 -27.01953125 10.046875 -26.21875 7.34765625 C-24.07421875 5.6171875 -24.07421875 5.6171875 -21.40625 4.16015625 C-20.53355469 3.67160156 -19.66085938 3.18304687 -18.76171875 2.6796875 C-17.92253906 2.24011719 -17.08335938 1.80054688 -16.21875 1.34765625 C-15.54972656 0.96738281 -14.88070312 0.58710938 -14.19140625 0.1953125 C-9.7605495 -1.7086398 -4.56140758 -1.34111807 0 0 Z " fill="#000000" transform="translate(117.21875,23.65234375)"/>
<path d="" fill="#000000" transform="translate(0,0)"/>
</svg>
