<?xml version="1.0" encoding="UTF-8"?>
<svg version="1.1" xmlns="http://www.w3.org/2000/svg" width="358" height="105">
<path d="M0 0 C7.59 0 15.18 0 23 0 C23 0.66 23 1.32 23 2 C20.69 2 18.38 2 16 2 C16 22.79 16 43.58 16 65 C22.6 65 29.2 65 36 65 C36 44.21 36 23.42 36 2 C33.69 2 31.38 2 29 2 C29 1.34 29 0.68 29 0 C36.26 0 43.52 0 51 0 C51 0.66 51 1.32 51 2 C49.02 2 47.04 2 45 2 C44.67 22.79 44.34 43.58 44 65 C45.32 65 46.64 65 48 65 C48 65.66 48 66.32 48 67 C46.68 67 45.36 67 44 67 C44.11813019 71.52085371 44.24236976 76.04148214 44.37231445 80.56201172 C44.41566926 82.10037653 44.45734395 83.63878963 44.49731445 85.17724609 C44.55500398 87.3865414 44.61870179 89.59559348 44.68359375 91.8046875 C44.70030624 92.49432587 44.71701874 93.18396423 44.73423767 93.89450073 C44.80806995 97.57114264 44.80806995 97.57114264 46 101 C48.52733235 101.65555119 48.52733235 101.65555119 51 102 C51 102.66 51 103.32 51 104 C43.74 104 36.48 104 29 104 C29 103.34 29 102.68 29 102 C32.465 101.505 32.465 101.505 36 101 C36 89.78 36 78.56 36 67 C29.4 67 22.8 67 16 67 C16 78.22 16 89.44 16 101 C19.465 101.495 19.465 101.495 23 102 C23 102.66 23 103.32 23 104 C15.41 104 7.82 104 0 104 C0 103.34 0 102.68 0 102 C3.465 101.01 3.465 101.01 7 100 C7.33 89.11 7.66 78.22 8 67 C6.68 67 5.36 67 4 67 C4 66.34 4 65.68 4 65 C5.32 65 6.64 65 8 65 C7.67 44.21 7.34 23.42 7 2 C4.69 2 2.38 2 0 2 C0 1.34 0 0.68 0 0 Z " fill="#000000" transform="translate(307,1)"/>
<path d="M0 0 C4.31226745 -0.11719343 8.62411934 -0.18758416 12.9375 -0.25 C14.75604492 -0.30027344 14.75604492 -0.30027344 16.61132812 -0.3515625 C23.84766053 -0.43000513 29.81933972 -0.03731723 36 4 C40.66913628 8.90259309 41.46145536 12.41170312 41.41796875 19.0390625 C40.46822121 25.76718059 35.70296517 30.42994471 31 35 C31.60328125 35.42410156 32.2065625 35.84820312 32.828125 36.28515625 C39.10486798 40.8914757 43.50045982 45.07187555 45 53 C45.62847439 62.86221353 44.68506947 72.16541053 43.07397461 81.88183594 C42.08511395 87.96365605 41.6179716 93.83094874 42 100 C44.97 100.99 44.97 100.99 48 102 C48 102.66 48 103.32 48 104 C40.65822785 104.48945148 40.65822785 104.48945148 37.5625 102.1875 C34.26030573 97.56442802 34.80864259 92.81876362 34.8125 87.375 C34.81185547 86.44091309 34.81121094 85.50682617 34.81054688 84.54443359 C34.86084639 77.81915938 35.34274816 71.25191936 36.28833008 64.59521484 C37.16377154 58.42892636 37.5300021 52.77170923 35.75 46.75 C35.40195313 45.50476562 35.40195313 45.50476562 35.046875 44.234375 C33.7580537 41.48360714 32.69709809 40.39636993 30 39 C26.86010188 39.09736118 25.43810721 39.62422869 23.05078125 41.671875 C22.47714844 42.35765625 21.90351563 43.0434375 21.3125 43.75 C20.73113281 44.42546875 20.14976562 45.1009375 19.55078125 45.796875 C16.81810816 49.67906044 15.74746347 53.15447321 15.77294922 57.88208008 C15.77310028 58.82267776 15.77325134 59.76327545 15.77340698 60.7323761 C15.78372955 61.7346373 15.79405212 62.7368985 15.8046875 63.76953125 C15.8075174 64.80567062 15.81034729 65.84181 15.81326294 66.90934753 C15.82443546 70.21051707 15.84953495 73.51141281 15.875 76.8125 C15.88503357 79.05403253 15.89415876 81.29556933 15.90234375 83.53710938 C15.92436522 89.0248326 15.95781379 94.51239674 16 100 C17.98 100.66 19.96 101.32 22 102 C22 102.66 22 103.32 22 104 C14.74 104 7.48 104 0 104 C0 103.34 0 102.68 0 102 C3.465 101.505 3.465 101.505 7 101 C6.67 68.66 6.34 36.32 6 3 C3.03 2.505 3.03 2.505 0 2 C0 1.34 0 0.68 0 0 Z M15 2 C15 16.52 15 31.04 15 46 C28.59188639 33.10758056 28.59188639 33.10758056 33.4375 15.75 C33.43155296 11.25404082 32.6106114 8.67395799 30 5 C25.07021937 0.66776853 22.43714221 2 15 2 Z " fill="#000000" transform="translate(118,1)"/>
<path d="M0 0 C10.40655981 7.60890589 15.37793011 18.80453343 17.77734375 31.19921875 C20.54648141 51.75042032 19.40965304 72.78700179 8.28125 90.66796875 C4.38209062 95.67023019 -0.25781816 100.50860293 -6.71875 101.66796875 C-15.04803659 102.4040019 -22.7712198 102.80723767 -29.71875 97.66796875 C-30.95044922 96.76111328 -30.95044922 96.76111328 -32.20703125 95.8359375 C-43.78773805 85.84014858 -46.31328857 69.8911954 -47.46484375 55.44140625 C-48.56077088 37.8995244 -46.04940565 19.21575938 -34.53125 5.41796875 C-25.22721643 -4.41556267 -12.09931829 -7.01210492 0 0 Z M-30.71875 5.66796875 C-37.91062664 16.56280569 -39.20828664 29.92233675 -39.71875 42.66796875 C-39.76 43.58449219 -39.80125 44.50101563 -39.84375 45.4453125 C-40.19436024 61.06938139 -39.92922775 81.6402244 -29.33203125 94.078125 C-24.80199058 98.54235394 -21.1940403 99.90984386 -14.78125 100.16796875 C-7.98651624 99.92135138 -3.34152372 98.21788765 1.53125 93.48046875 C9.53371347 80.61936674 10.79856501 66.21117231 10.67236328 51.40673828 C10.65625726 49.16897688 10.67233071 46.9330204 10.69140625 44.6953125 C10.71124732 31.29974517 10.05699842 15.21059144 0.578125 4.796875 C-4.70207455 0.01025932 -9.32410656 -1.76337619 -16.4453125 -1.5859375 C-22.02577992 -0.96268942 -26.84980441 1.6972088 -30.71875 5.66796875 Z " fill="#000000" transform="translate(95.71875,3.33203125)"/>
<path d="M0 0 C7.26 0 14.52 0 22 0 C22 0.66 22 1.32 22 2 C20.02 2.33 18.04 2.66 16 3 C17.48296306 13.95520885 19.29175007 24.8367887 21.1875 35.7265625 C21.49373673 37.49058989 21.79997039 39.25461782 22.10620117 41.01864624 C22.74330803 44.68475736 23.38235862 48.35052407 24.02246094 52.01611328 C24.84191356 56.71131654 25.6534518 61.40785257 26.46324158 66.10473061 C27.09041552 69.73425932 27.72321283 73.3627911 28.35757446 76.99106979 C28.65947347 78.72345254 28.95927775 80.45620172 29.25692749 82.18931961 C29.67185613 84.60206596 30.09470128 87.01329664 30.51953125 89.42431641 C30.64010895 90.13599976 30.76068665 90.84768311 30.88491821 91.58093262 C31.74367221 96.55864369 31.74367221 96.55864369 34 101 C37.05908413 101.81584568 37.05908413 101.81584568 40 102 C39.67 102.66 39.34 103.32 39 104 C31.41 104 23.82 104 16 104 C16 103.34 16 102.68 16 102 C18.64 101.67 21.28 101.34 24 101 C23.90057098 100.4513176 23.80114197 99.90263519 23.69869995 99.33732605 C18.67024546 71.5797501 13.69041879 43.81690614 9 16 C7.17918961 21.01013117 6.09952094 26.013819 5.08984375 31.23046875 C4.91747696 32.10270584 4.74511017 32.97494293 4.56752014 33.87361145 C4.02049344 36.6441971 3.47865018 39.41576107 2.9375 42.1875 C2.39209552 44.96980798 1.84555849 47.75188137 1.29676819 50.53352356 C0.95628804 52.26038936 0.61786518 53.98766236 0.28172302 55.71537781 C0.05127037 56.88723381 0.05127037 56.88723381 -0.18383789 58.08276367 C-0.38463707 59.11151863 -0.38463707 59.11151863 -0.5894928 60.16105652 C-1 62 -1 62 -2 65 C4.435 64.505 4.435 64.505 11 64 C11 61.03 11 58.06 11 55 C11.66 55 12.32 55 13 55 C13.83919128 59.41557456 14.6703408 63.83262534 15.5 68.25 C15.73847656 69.50425781 15.97695312 70.75851563 16.22265625 72.05078125 C16.44824219 73.25605469 16.67382812 74.46132812 16.90625 75.703125 C17.11572266 76.81333008 17.32519531 77.92353516 17.54101562 79.06738281 C18 82 18 82 18 86 C17.34 86 16.68 86 16 86 C14.71356308 80.94614065 13.52466597 75.89157239 12.46484375 70.78515625 C12.15800339 68.98930215 12.15800339 68.98930215 11 68 C8.81360547 67.92741054 6.62499611 67.91626217 4.4375 67.9375 C3.23996094 67.94652344 2.04242188 67.95554687 0.80859375 67.96484375 C-0.58166016 67.98224609 -0.58166016 67.98224609 -2 68 C-3.18902573 79.29574445 -3.37765743 88.17616257 2.42578125 98.1796875 C5.15726479 101.33817715 7.95513379 101.52010062 12 102 C12 102.66 12 103.32 12 104 C4.41 104 -3.18 104 -11 104 C-11 103.34 -11 102.68 -11 102 C-8.525 101.505 -8.525 101.505 -6 101 C-6.16113281 99.85402344 -6.32226562 98.70804687 -6.48828125 97.52734375 C-7.02697952 93.19392136 -7.19147476 88.9262943 -7.1875 84.5625 C-7.1884668 83.45370483 -7.1884668 83.45370483 -7.18945312 82.32250977 C-7.13762826 76.96511466 -6.50260933 72.16521956 -5 67 C-6.32 67 -7.64 67 -9 67 C-9 66.34 -9 65.68 -9 65 C-7.02 64.505 -7.02 64.505 -5 64 C-3.42372807 56.43973493 -1.85829202 48.87728409 -0.30029297 41.31323242 C0.23075393 38.74142966 0.76425977 36.17013334 1.30029297 33.59936523 C2.07128872 29.89958691 2.83336126 26.19806469 3.59375 22.49609375 C3.83436157 21.35103867 4.07497314 20.20598358 4.32287598 19.02622986 C5.43209057 13.58365753 6.3073747 8.55719489 6 3 C3.03 2.505 3.03 2.505 0 2 C0 1.34 0 0.68 0 0 Z " fill="#000000" transform="translate(181,1)"/>
<path d="M0 0 C4.29129925 -0.14677671 8.58194224 -0.23456586 12.875 -0.3125 C14.07898438 -0.35439453 15.28296875 -0.39628906 16.5234375 -0.43945312 C24.34549824 -0.54573112 30.58489523 0.23564395 37 5 C40.02028143 8.50983492 41.15759924 11.58124069 41.3125 16.1875 C41.36857422 17.26064453 41.36857422 17.26064453 41.42578125 18.35546875 C40.06959415 26.77875928 34.57413048 31.80212214 28.4375 37.25 C26.91285174 38.62743201 25.39062336 40.00754835 23.87109375 41.390625 C23.20005615 41.98907227 22.52901855 42.58751953 21.83764648 43.20410156 C17.54221915 47.40194446 15.90278543 50.83092377 15.79467773 56.83862305 C15.77473251 57.8194133 15.75478729 58.80020355 15.73423767 59.81071472 C15.70916893 61.39521172 15.70916893 61.39521172 15.68359375 63.01171875 C15.66281265 64.09508011 15.64203156 65.17844147 15.62062073 66.29463196 C15.55518203 69.75885616 15.49626647 73.2231568 15.4375 76.6875 C15.39430939 79.03451315 15.35069493 81.38151853 15.30664062 83.72851562 C15.19950643 89.48559604 15.09772936 95.24275267 15 101 C18.465 101.495 18.465 101.495 22 102 C22 102.66 22 103.32 22 104 C14.74 104 7.48 104 0 104 C0 103.34 0 102.68 0 102 C2.97 101.01 2.97 101.01 6 100 C6 67.99 6 35.98 6 3 C3.03 2.505 3.03 2.505 0 2 C0 1.34 0 0.68 0 0 Z M15 2 C15 16.52 15 31.04 15 46 C28.76155915 32.33183344 28.76155915 32.33183344 33.09765625 14 C32.97490709 10.22914588 32.34819614 7.97438178 30 5 C25.17758956 0.61599051 22.30325322 2 15 2 Z " fill="#000000" transform="translate(264,1)"/>
<path d="M0 0 C7.26 0 14.52 0 22 0 C22 0.66 22 1.32 22 2 C20.02 2.33 18.04 2.66 16 3 C18.5677397 17.02261604 21.16993357 31.03892479 23.85150146 45.04025269 C24.11738225 46.43120948 24.38190667 47.82242622 24.64508057 49.21389771 C25.01482149 51.16675427 25.39009129 53.11856161 25.765625 55.0703125 C26.08708496 56.75278076 26.08708496 56.75278076 26.41503906 58.46923828 C26.74696411 60.92353085 26.74696411 60.92353085 28 62 C28.98107462 57.83798107 29.95958457 53.67536979 30.93579102 49.51220703 C31.26778018 48.09798164 31.60045211 46.68391634 31.93383789 45.27001953 C32.41475012 43.22991652 32.89315001 41.18923773 33.37109375 39.1484375 C33.65911865 37.92302246 33.94714355 36.69760742 34.24389648 35.43505859 C36.57870303 24.82778444 37.92212446 14.63966245 32 5 C29.23776722 2.23776722 26.79293383 2.42143709 23 2 C23 1.34 23 0.68 23 0 C30.26 0 37.52 0 45 0 C45 0.66 45 1.32 45 2 C43.02 2 41.04 2 39 2 C39.32178223 2.5146582 39.64356445 3.02931641 39.97509766 3.55957031 C44.72072547 14.85954545 39.53292591 30.03561704 36.625 41.25 C32.73980383 56.62186311 29.65817673 70.77179273 29.875 86.75 C29.88402344 88.03132813 29.89304687 89.31265625 29.90234375 90.6328125 C29.92564673 93.75541221 29.95835946 96.87760025 30 100 C31.98 100.66 33.96 101.32 36 102 C36 102.66 36 103.32 36 104 C28.74 104 21.48 104 14 104 C14 103.34 14 102.68 14 102 C17.465 101.505 17.465 101.505 21 101 C21.11503378 79.68334471 18.27354499 59.87236557 13.96331787 39.06665039 C13.33369691 36.00339634 12.72416315 32.93628999 12.11528778 29.86885548 C10.86042992 23.54762337 9.59107188 17.22933147 8.29101562 10.91723633 C8.06530884 9.81889969 7.83960205 8.72056305 7.60705566 7.58894348 C7.11312424 5.03356763 7.11312424 5.03356763 6 3 C2.97065509 2.34227572 2.97065509 2.34227572 0 2 C0 1.34 0 0.68 0 0 Z " fill="#000000" transform="translate(0,1)"/>
<path d="M0 0 C7.26 0 14.52 0 22 0 C22 0.66 22 1.32 22 2 C20.02 2.33 18.04 2.66 16 3 C15.67 35.67 15.34 68.34 15 102 C23.54554637 101.32257631 23.54554637 101.32257631 32 100 C33.00366066 95.70935068 33.28009753 91.44833262 33.5 87.0625 C33.739369 82.31501485 34.12114886 77.67988233 35 73 C35.66 73 36.32 73 37 73 C37.18629712 83.37053987 36.59145387 93.64955734 36 104 C24.12 104 12.24 104 0 104 C0 103.34 0 102.68 0 102 C3.465 101.505 3.465 101.505 7 101 C6.67 68.66 6.34 36.32 6 3 C3.03 2.505 3.03 2.505 0 2 C0 1.34 0 0.68 0 0 Z " fill="#000000" transform="translate(223,1)"/>
</svg>
