<?xml version="1.0" encoding="UTF-8"?>
<svg version="1.1" xmlns="http://www.w3.org/2000/svg" width="387" height="85">
<path d="M0 0 C7.26 0 14.52 0 22 0 C22 2 22 2 20.0625 4 C19.381875 4.66 18.70125 5.32 18 6 C16.41517429 9.16965142 16.62147177 12.63744541 16.4375 16.125 C16.293125 18.72375 16.14875 21.3225 16 24 C23.26 24 30.52 24 38 24 C37.8453125 20.1946875 37.8453125 20.1946875 37.6875 16.3125 C37.66260498 15.52270752 37.63770996 14.73291504 37.61206055 13.91918945 C37.3841724 9.53386752 36.77487831 6.58336138 34 3 C33.34 2.67 32.68 2.34 32 2 C32 1.34 32 0.68 32 0 C39.26 0 46.52 0 54 0 C53.67 0.99 53.34 1.98 53 3 C52.34 3 51.68 3 51 3 C48.71300641 10.30142193 48.69376085 17.2673094 48.69921875 24.87890625 C48.69532367 26.21833934 48.69098735 27.55777122 48.68623352 28.89720154 C48.67880943 31.6918439 48.67903567 34.48635983 48.68432617 37.28100586 C48.69013052 40.84731852 48.67314862 44.41311346 48.6499815 47.97934055 C48.63519612 50.74101238 48.63437869 53.50256066 48.63749123 56.26426506 C48.63673446 58.21343654 48.62291086 60.16258897 48.60881042 62.11170959 C48.65126013 70.25515628 49.45546452 75.18319678 54 82 C46.74 82 39.48 82 32 82 C33.32 80.35 34.64 78.7 36 77 C37.22083085 74.5583383 37.15730743 72.91309194 37.20532227 70.18310547 C37.22526749 69.18221893 37.24521271 68.1813324 37.26576233 67.15011597 C37.28247482 66.06674957 37.29918732 64.98338318 37.31640625 63.8671875 C37.33718735 62.76021515 37.35796844 61.6532428 37.37937927 60.51272583 C37.44490991 56.96688201 37.50377614 53.42096246 37.5625 49.875 C37.60568187 47.4752525 37.64929605 45.07551273 37.69335938 42.67578125 C37.80141061 36.78393075 37.90045824 30.89202508 38 25 C30.74 25 23.48 25 16 25 C16.07405362 31.86911159 16.15693707 38.7369343 16.26245117 45.60546875 C16.29566333 47.94101237 16.32370676 50.27663553 16.34643555 52.61230469 C16.38004901 55.97365145 16.43237003 59.33427169 16.48828125 62.6953125 C16.49467117 63.73615997 16.5010611 64.77700745 16.50764465 65.84939575 C16.63882562 72.34784238 17.19411832 77.19411832 22 82 C14.74 82 7.48 82 0 82 C0.495 81.01 0.495 81.01 1 80 C1.66 80 2.32 80 3 80 C5.60935543 73.05556963 5.3058509 66.12344661 5.30078125 58.78125 C5.30467467 57.39554721 5.30901066 56.0098456 5.31376648 54.62414551 C5.32119996 51.72937132 5.32095787 48.83471917 5.31567383 45.93994141 C5.30987504 42.24469134 5.3268335 38.54994183 5.3500185 34.85477448 C5.36480252 31.99616617 5.36562137 29.13767725 5.36250877 26.27903748 C5.36326617 24.25895986 5.37709524 22.23890066 5.39118958 20.21887207 C5.35708486 11.19177417 5.35708486 11.19177417 2 3 C1.34 2.67 0.68 2.34 0 2 C0 1.34 0 0.68 0 0 Z " fill="#000000" transform="translate(333,1)"/>
<path d="M0 0 C32.81048055 -0.89937358 32.81048055 -0.89937358 43 8 C46.89294268 12.0978344 48.73954763 15.69933739 49.375 21.3125 C48.79999522 26.96671366 46.95495553 31.2227677 42.72265625 35.0703125 C36.37673518 39.56799544 28.76953037 42.47025929 21 43 C21.20214441 53.91579822 28.60822992 61.16824664 36.08984375 68.46484375 C40.56902288 72.36684007 45.38779515 75.7204599 50.2890625 79.06640625 C51.18367188 79.70449219 52.07828125 80.34257813 53 81 C53 81.33 53 81.66 53 82 C38.46524432 83.36579491 38.46524432 83.36579491 32.890625 80.27734375 C30.36143734 77.987722 28.17465457 75.62668951 26 73 C25.31164062 72.26136719 24.62328125 71.52273437 23.9140625 70.76171875 C21.05500849 67.66343777 18.76699099 64.84830249 17 61 C16.77965631 67.65927608 16.77181227 73.66725594 19 80 C20.485 80.495 20.485 80.495 22 81 C22 81.33 22 81.66 22 82 C14.74 82 7.48 82 0 82 C1.32 80.35 2.64 78.7 4 77 C5.10673641 73.67979076 5.14037738 71.17813887 5.16113281 67.68017578 C5.17074036 66.3751712 5.1803479 65.07016663 5.19024658 63.72561646 C5.19509446 62.29885025 5.19937331 60.87208201 5.203125 59.4453125 C5.20887866 57.98184203 5.21463636 56.51837157 5.22039795 55.05490112 C5.23089966 51.98662973 5.2367478 48.91838449 5.24023438 45.85009766 C5.24571852 41.92365145 5.269748 37.99755212 5.29820633 34.07121468 C5.31685422 31.04799396 5.32203944 28.02485647 5.32357025 25.0015831 C5.32659228 23.55433124 5.33460569 22.10708068 5.34775543 20.65988541 C5.36485954 18.63286479 5.36108456 16.60570075 5.35644531 14.57861328 C5.36009094 13.42628204 5.36373657 12.27395081 5.36749268 11.08670044 C4.95752161 7.64320901 4.05931753 5.7642254 2 3 C1.34 2.67 0.68 2.34 0 2 C0 1.34 0 0.68 0 0 Z M16 2 C16 16.19 16 30.38 16 45 C17.65 43.68 19.3 42.36 21 41 C23.71875 39.875 23.71875 39.875 26.5 39 C33.35576647 36.64654937 33.35576647 36.64654937 37.95703125 31.25 C40.59347785 25.08625271 40.88966442 19.76264216 38.8125 13.3125 C36.25934329 8.64638601 34.33846653 5.79764132 29.1484375 4.02734375 C24.64866225 2.85039524 20.66641812 2 16 2 Z " fill="#000000" transform="translate(115,1)"/>
<path d="M0 0 C9.7919916 6.10935128 14.76944302 15.95097311 17.34375 26.87890625 C19.94392715 41.91545702 18.96935409 58.36805004 10.6875 71.5625 C6.57184405 77.19445024 1.54300385 81.91781294 -5.4375 83.5625 C-14.17242103 84.60291599 -21.2004678 83.74684671 -28.4375 78.5625 C-36.28008268 71.756382 -40.84541453 61.0061409 -41.65820312 50.7878418 C-42.27439791 34.64797717 -42.40227778 19.51138042 -31.4375 6.5625 C-23.33161305 -1.75858749 -11.04564188 -4.81871628 0 0 Z M-28.4375 7.5625 C-35.79109353 20.34161071 -34.57964169 36.06860826 -31.4140625 49.98828125 C-28.07429031 62.21184746 -23.69313094 71.87077679 -13.4375 79.5625 C-10.22110522 81.17069739 -6.92605833 81.03111231 -3.4375 80.5625 C2.71099712 77.37001111 6.16351593 73.4119097 8.3125 66.875 C12.69860057 48.79748054 8.86509671 29.69039419 0.34375 13.48046875 C-2.82291192 8.29297653 -5.93338133 4.31455933 -11.4375 1.5625 C-18.7848806 0.1416016 -23.8466843 1.57978805 -28.4375 7.5625 Z " fill="#000000" transform="translate(95.4375,1.4375)"/>
<path d="M0 0 C29.93574624 -0.56364376 29.93574624 -0.56364376 42.875 7.875 C46.96611989 11.96611989 48.20860745 15.68103216 48.5 21.375 C48.28355223 27.07221444 47.16285239 30.9948978 43 35 C36.9283842 39.23974416 30.904593 41.236169 23.58984375 42.1640625 C22.34968506 42.32600098 21.10952637 42.48793945 19.83178711 42.65478516 C18.43005249 42.8256665 18.43005249 42.8256665 17 43 C16.9256161 47.46570449 16.87128829 51.93107684 16.83520508 56.3972168 C16.82015647 57.91518438 16.79971262 59.43310876 16.77368164 60.95092773 C16.73712347 63.13796677 16.72023477 65.32442896 16.70703125 67.51171875 C16.6913208 68.82615967 16.67561035 70.14060059 16.65942383 71.49487305 C17.11682925 76.20237816 18.70702432 78.70702432 22 82 C14.74 82 7.48 82 0 82 C1.32 80.02 2.64 78.04 4 76 C5.21032531 72.72543903 5.13266381 69.54614421 5.14526367 66.07324219 C5.15164352 64.87809998 5.15802338 63.68295776 5.16459656 62.45159912 C5.16570938 61.16304016 5.1668222 59.8744812 5.16796875 58.546875 C5.1711849 57.20412155 5.17454924 55.86136845 5.17805481 54.51861572 C5.1840376 51.70429676 5.18589569 48.89000846 5.18530273 46.07568359 C5.18520139 42.48705352 5.19882833 38.89862254 5.21607494 35.31003952 C5.22725165 32.53547278 5.22922018 29.76095321 5.22869301 26.98636627 C5.23043216 25.02562491 5.2412402 23.06489827 5.25224304 21.10418701 C5.2361228 14.7760834 5.20051039 8.98099181 3 3 C2.01 2.67 1.02 2.34 0 2 C0 1.34 0 0.68 0 0 Z M16 2 C16 14.87 16 27.74 16 41 C28.37388327 39.7203195 28.37388327 39.7203195 36.8125 32.9375 C40.12476474 27.53327858 39.41387372 21.11028106 39 15 C37.12898639 9.38695918 33.94310413 6.5976851 28.8125 3.8125 C24.6685983 2.61537284 20.29194903 2.4291949 16 2 Z " fill="#000000" transform="translate(283,1)"/>
<path d="M0 0 C1.65 0 3.3 0 5 0 C6.15642596 3.94215151 7.29489023 7.88903551 8.41796875 11.84082031 C8.80125693 13.18039965 9.18916453 14.51866721 9.58203125 15.85546875 C15.40439244 35.69902627 15.40439244 35.69902627 10.46484375 45.6484375 C7.46095767 50.47067596 3.68399918 54.69137812 0 59 C-5.38243037 65.19604772 -5.38243037 65.19604772 -7 73 C-5.26655125 76.72843964 -5.26655125 76.72843964 -2 79 C0.37123246 79.23029956 2.74741943 79.41119942 5.125 79.5625 C7.04699219 79.68818359 7.04699219 79.68818359 9.0078125 79.81640625 C9.99523437 79.87699219 10.98265625 79.93757813 12 80 C12.22284465 73.84701171 11.75982794 68.93941929 10 63 C9.42402046 57.04821146 10.35393624 53.40577581 13.02734375 48.078125 C13.97280606 46.05810112 14.53456619 44.17529065 15 42 C15.66 42 16.32 42 17 42 C17.27880005 43.14831299 17.27880005 43.14831299 17.56323242 44.31982422 C18.42567674 47.84136111 19.30644469 51.35807528 20.1875 54.875 C20.47947266 56.07898437 20.77144531 57.28296875 21.07226562 58.5234375 C24.22830368 71.97427696 24.22830368 71.97427696 33 82 C28.12535909 82.07443657 23.25105272 82.12873667 18.37597656 82.16479492 C16.71934237 82.17983465 15.06274769 82.20027177 13.40625 82.22631836 C11.0181297 82.26291515 8.63053812 82.27977439 6.2421875 82.29296875 C5.14026566 82.31619453 5.14026566 82.31619453 4.01608276 82.33988953 C-0.74022202 82.34142856 -3.96993484 81.53321657 -8 79 C-10.33974804 75.43951385 -10.20948408 72.23621497 -9.53125 68.08203125 C-8.30575192 63.27916011 -5.57473908 59.03107698 -3.1796875 54.734375 C2.45767388 44.34383237 3.25835727 37.81730532 0 26.375 C-0.65368878 24.24597195 -1.31591065 22.1194554 -2 20 C-5.45076538 31.72475966 -8.74931072 43.49347143 -11.88525391 55.30636597 C-12.25151532 56.67832828 -12.62240197 58.04906471 -12.99804688 59.41848755 C-13.53116004 61.36664504 -14.04517603 63.31999707 -14.55859375 65.2734375 C-14.86079834 66.40185059 -15.16300293 67.53026367 -15.47436523 68.69287109 C-16.29291987 73.84295985 -15.90477336 77.64283996 -13 82 C-17.62 82 -22.24 82 -27 82 C-26.0925 81.071875 -25.185 80.14375 -24.25 79.1875 C-17.44314921 71.19717544 -15.69701249 59.61042302 -13.14453125 49.6875 C-12.79441103 48.34264548 -12.44379004 46.99792123 -12.09269714 45.65332031 C-11.17941416 42.15081918 -10.27225036 38.64676418 -9.36663818 35.14227295 C-8.26070123 30.86677111 -7.14820286 26.59297282 -6.03584576 22.31913757 C-5.17180259 18.99936 -4.30899605 15.67928047 -3.45014954 12.3581543 C-3.1428038 11.17261963 -2.83545807 9.98708496 -2.51879883 8.765625 C-2.24884598 7.72180664 -1.97889313 6.67798828 -1.70075989 5.60253906 C-1.19332679 3.71799276 -0.61717122 1.85151365 0 0 Z " fill="#000000" transform="translate(197,1)"/>
<path d="M0 0 C7.26 0 14.52 0 22 0 C21.67 0.99 21.34 1.98 21 3 C20.34 3 19.68 3 19 3 C16.46324781 10.8327787 16.64894534 18.72814055 16.5859375 26.875 C16.56720205 28.41057346 16.54762691 29.94613687 16.5272522 31.48168945 C16.47617574 35.49943086 16.43641993 39.51720555 16.39910889 43.53509521 C16.35891467 47.64457264 16.30789309 51.75391452 16.2578125 55.86328125 C16.16134362 63.90876117 16.07684711 71.95430883 16 80 C19.00199825 79.93947584 21.99936422 79.85224389 25 79.75 C25.83917969 79.73582031 26.67835938 79.72164063 27.54296875 79.70703125 C33.37868847 79.48084056 38.17932333 78.44767173 43 75 C46.64065182 70.56615923 47.83661462 65.52608055 49 60 C49.33 60 49.66 60 50 60 C50 67.26 50 74.52 50 82 C33.5 82 17 82 0 82 C1.32 80.35 2.64 78.7 4 77 C5.40468119 74.19063763 5.14280521 71.84434393 5.16113281 68.7019043 C5.16609772 68.05615448 5.17106262 67.41040466 5.17617798 66.74508667 C5.19080464 64.60478658 5.19760303 62.46456065 5.203125 60.32421875 C5.20887685 58.83689878 5.21463458 57.34957884 5.22039795 55.86225891 C5.23090992 52.74093276 5.23675103 49.61963238 5.24023438 46.49829102 C5.24571401 42.50343718 5.2697295 38.50892506 5.29820633 34.51417828 C5.31685525 31.44034337 5.32203954 28.36659032 5.32357025 25.29270363 C5.32659316 23.82033232 5.33460954 22.34796232 5.34775543 20.87564659 C5.36486085 18.81226217 5.36292514 16.74970637 5.35644531 14.6862793 C5.36009094 13.51316696 5.36373657 12.34005463 5.36749268 11.13139343 C4.96020774 7.66093145 4.07892488 5.78181588 2 3 C1.34 2.67 0.68 2.34 0 2 C0 1.34 0 0.68 0 0 Z " fill="#000000" transform="translate(231,1)"/>
<path d="M0 0 C13.56217827 -0.59252235 13.56217827 -0.59252235 18 3 C25.24154984 12.43085561 29.23796489 24.34952907 31 36 C31.66 36 32.32 36 33 36 C33.14695313 35.46375 33.29390625 34.9275 33.4453125 34.375 C34.64430732 30.18540891 35.94303178 26.07669362 37.53515625 22.01953125 C37.80634277 21.32537109 38.0775293 20.63121094 38.35693359 19.91601562 C38.90042959 18.53954251 39.45378218 17.16691052 40.01806641 15.79882812 C41.75809669 11.38241856 42.28147164 7.82254743 42 3 C41.34 2.67 40.68 2.34 40 2 C40 1.34 40 0.68 40 0 C44.62 0 49.24 0 54 0 C54 0.66 54 1.32 54 2 C53.113125 2.495 52.22625 2.99 51.3125 3.5 C48.31061477 5.40551408 47.11222341 7.30429206 45.59375 10.5 C45.16682861 11.39654297 44.73990723 12.29308594 44.30004883 13.21679688 C43.65652466 14.59448242 43.65652466 14.59448242 43 16 C42.58967529 16.83080078 42.17935059 17.66160156 41.7565918 18.51757812 C35.40439527 31.67433037 33.14762138 43.6770827 33.25 58.125 C33.2526889 58.87096436 33.25537781 59.61692871 33.25814819 60.38549805 C33.13578702 72.16455057 33.13578702 72.16455057 39 82 C31.74 82 24.48 82 17 82 C18.32 80.02 19.64 78.04 21 76 C26.66618587 59.00144239 22.4556219 35.60479003 15 20 C14.46647965 18.76977229 13.93631122 17.53808327 13.41015625 16.3046875 C10.78360565 10.52209599 8.37709836 6.46524116 3 3 C2.01 2.67 1.02 2.34 0 2 C0 1.34 0 0.68 0 0 Z " fill="#000000" transform="translate(0,1)"/>
</svg>